<svg width="80" height="107" viewBox="0 0 80 107" fill="none" xmlns="http://www.w3.org/2000/svg">
<path d="M41.1791 101.322C46.6506 97.845 51.5671 93.6309 55.8507 88.9311C65.1548 78.7425 71.4327 66.2907 73.9473 54.0731C76.4446 42.0115 75.2654 30.1928 69.7418 21.0707C68.1724 18.452 66.204 16.0588 63.8628 13.9083C57.1513 7.79518 49.4687 4.88167 41.734 4.80363C33.6092 4.74293 25.3716 7.79518 18.0878 13.5962C14.9836 16.0761 12.4256 18.9289 10.4399 22.0766C5.3239 30.1234 3.77176 40.1125 5.46264 50.5613C7.17085 61.1661 12.2088 72.2565 20.2383 82.3063C25.8225 89.3126 32.8461 95.816 41.2051 101.305L41.1791 101.322ZM39.9998 18.348C46.113 18.348 51.6625 20.8279 55.6599 24.8427C59.6746 28.8574 62.1546 34.3809 62.1546 40.5027C62.1546 46.6159 59.6746 52.1654 55.6599 56.1628C51.6452 60.1776 46.1216 62.6575 39.9998 62.6575C33.8867 62.6575 28.3371 60.1776 24.3397 56.1628C20.325 52.1481 17.845 46.6246 17.845 40.5027C17.845 34.3896 20.325 28.8401 24.3397 24.8427C28.3545 20.8279 33.878 18.348 39.9998 18.348ZM52.4689 28.0336C49.2866 24.8513 44.8557 22.857 39.9998 22.857C35.118 22.857 30.713 24.8253 27.5307 28.0336C24.3484 31.2159 22.354 35.6469 22.354 40.5027C22.354 45.3846 24.3224 49.7895 27.5307 52.9719C30.713 56.1542 35.144 58.1485 39.9998 58.1485C44.8817 58.1485 49.2866 56.1802 52.4689 52.9719C55.6512 49.7895 57.6456 45.3586 57.6456 40.5027C57.6369 35.6209 55.6772 31.2159 52.4689 28.0336ZM59.4145 92.1481C54.5587 97.4548 48.9311 102.215 42.5751 106.074C41.8121 106.646 40.7282 106.724 39.8611 106.169C30.4962 100.212 22.6488 93.0499 16.4577 85.2805C7.93391 74.589 2.54913 62.7269 0.719519 51.2983C-1.14478 39.7137 0.598123 28.5799 6.36444 19.4926C8.64495 15.9114 11.5411 12.651 15.0963 9.8329C23.2211 3.36422 32.5253 -0.0608816 41.7687 -0.000183572C50.6827 0.0778568 59.4752 3.38156 67.1058 10.3445C69.7852 12.7811 72.0224 15.5385 73.852 18.5647C80.0518 28.7707 81.3872 41.8121 78.6731 54.9922C75.9764 68.0336 69.3083 81.2918 59.4405 92.1047L59.4145 92.1481Z" fill="black"/>
</svg>
