<svg width="95" height="104" viewBox="0 0 95 104" fill="none" xmlns="http://www.w3.org/2000/svg">
<path d="M44.6316 2.71208C44.6316 1.57179 45.9165 0.647461 47.4996 0.647461C49.0827 0.647461 50.3675 1.57179 50.3675 2.71208V40.002C50.3675 41.1423 49.0835 42.0666 47.4996 42.0666C45.9156 42.0666 44.6316 41.1423 44.6316 40.002V2.71208ZM61.8586 17.1686C60.373 16.6241 59.6108 14.9796 60.1562 13.494C60.6998 12.0091 62.3443 11.247 63.8299 11.7915C73.0413 15.1653 80.9208 21.3197 86.4542 29.2412C91.8396 36.9501 95 46.316 95 56.4038C95 69.5175 89.6817 81.3926 81.0855 89.9897C72.4892 98.5851 60.6141 103.904 47.4996 103.904C34.385 103.904 22.5099 98.586 13.9137 89.9897C5.31825 81.3926 0 69.5175 0 56.4038C0 46.316 3.15952 36.9501 8.545 29.2412C14.0784 21.3197 21.9579 15.1653 31.1692 11.7915C32.654 11.2478 34.2993 12.01 34.843 13.494C35.3875 14.9788 34.6254 16.6241 33.1405 17.1686C25.0241 20.1416 18.0883 25.5531 13.2271 32.5116C8.50551 39.271 5.73504 47.5076 5.73504 56.4038C5.73504 67.9352 10.4105 78.376 17.969 85.9344C25.5274 93.4929 35.9682 98.1692 47.4996 98.1692C59.031 98.1692 69.4717 93.4938 77.0302 85.9344C84.5887 78.3768 89.2641 67.9352 89.2641 56.4038C89.2641 47.5076 86.4937 39.271 81.772 32.5116C76.91 25.5522 69.9751 20.1407 61.8586 17.1686Z" fill="black"/>
</svg>
