<svg width="80" height="93" viewBox="0 0 80 93" fill="none" xmlns="http://www.w3.org/2000/svg">
<path d="M23.5659 65.336C22.2658 65.336 21.2048 64.2675 21.2048 62.9525C21.2048 61.6375 22.2583 60.569 23.5659 60.569H38.883C40.1831 60.569 41.244 61.6375 41.244 62.9525C41.244 64.2675 40.1905 65.336 38.883 65.336H23.5659ZM23.5659 31.9522C22.2658 31.9522 21.2123 30.8987 21.2123 29.5986C21.2123 28.2985 22.2658 27.245 23.5659 27.245H54.6558C55.9559 27.245 57.0094 28.2985 57.0094 29.5986C57.0094 30.8987 55.9559 31.9522 54.6558 31.9522H23.5659ZM42.4769 87.4748C43.777 87.4748 44.8305 88.5283 44.8305 89.8284C44.8305 91.1285 43.777 92.182 42.4769 92.182H5.47679C3.9675 92.182 2.60017 91.5693 1.60643 90.5755C0.612683 89.5818 0 88.2145 0 86.7052V5.84593C0 4.33664 0.612683 2.96931 1.60643 1.97557C2.60017 0.981824 3.9675 0.369141 5.47679 0.369141H72.7375C74.2467 0.369141 75.6141 0.981824 76.6078 1.97557C77.6016 2.96931 78.2142 4.33664 78.2142 5.84593V54.614C78.2142 55.9141 77.1607 56.9676 75.8606 56.9676C74.5606 56.9676 73.507 55.9141 73.507 54.614V5.84593C73.507 5.63672 73.4174 5.44246 73.2829 5.30049C73.1409 5.15853 72.9467 5.07634 72.7375 5.07634H5.47679C5.26758 5.07634 5.07332 5.166 4.93135 5.30049C4.79686 5.44993 4.7072 5.63672 4.7072 5.84593V86.6977C4.7072 86.9069 4.79686 87.1012 4.93135 87.2431C5.07332 87.3851 5.26758 87.4673 5.47679 87.4673H42.4769V87.4748ZM62.277 62.9077C62.277 61.6151 63.3305 60.5615 64.6231 60.5615C65.9158 60.5615 66.9693 61.6151 66.9693 62.9077L66.9394 73.6371L77.6539 73.667C78.9465 73.667 80 74.7205 80 76.0131C80 77.3057 78.9465 78.3592 77.6539 78.3592L66.9319 78.3294L66.902 89.0438C66.902 90.3364 65.8485 91.39 64.5559 91.39C63.2633 91.39 62.2098 90.3364 62.2098 89.0438L62.2397 78.3219L51.5252 78.292C50.2326 78.292 49.179 77.2385 49.179 75.9459C49.179 74.6533 50.2326 73.5997 51.5252 73.5997L62.2546 73.6296L62.277 62.9077ZM23.5659 48.6292C22.2658 48.6292 21.2123 47.5756 21.2123 46.2756C21.2123 44.9755 22.2658 43.922 23.5659 43.922H54.6558C55.9559 43.922 57.0094 44.9755 57.0094 46.2756C57.0094 47.5756 55.9559 48.6292 54.6558 48.6292H23.5659Z" fill="#74A02F"/>
</svg>
