<svg width="15" height="16" viewBox="0 0 15 16" fill="none" xmlns="http://www.w3.org/2000/svg">
<path d="M0.416667 8C0.416667 9.53455 0.499435 10.7393 0.710083 11.6871C0.919679 12.6302 1.2503 13.2932 1.72853 13.7715C2.20677 14.2497 2.86982 14.5803 3.81291 14.7899C4.76074 15.0006 5.96545 15.0833 7.5 15.0833C9.03455 15.0833 10.2393 15.0006 11.1871 14.7899C12.1302 14.5803 12.7932 14.2497 13.2715 13.7715C13.7497 13.2932 14.0803 12.6302 14.2899 11.6871C14.5006 10.7393 14.5833 9.53455 14.5833 8C14.5833 6.46545 14.5006 5.26074 14.2899 4.31291C14.0803 3.36982 13.7497 2.70677 13.2715 2.22853C12.7932 1.7503 12.1302 1.41968 11.1871 1.21008C10.2393 0.999435 9.03455 0.916667 7.5 0.916667C5.96545 0.916667 4.76074 0.999435 3.81291 1.21008C2.86982 1.41968 2.20677 1.7503 1.72853 2.22853C1.2503 2.70677 0.919679 3.36982 0.710083 4.31291C0.499435 5.26074 0.416667 6.46545 0.416667 8Z" stroke="#212135" stroke-width="0.833333" stroke-linecap="round" stroke-linejoin="round"/>
<path d="M7.5 4.25C7.5 4.25 7.5 6.75 7.5 7.375C7.5 8 7.49999 8 8.125 8C8.75001 8 11.25 8 11.25 8" stroke="#212135" stroke-width="0.833333" stroke-linecap="round" stroke-linejoin="round"/>
</svg>
