<svg width="15" height="18" viewBox="0 0 15 18" fill="none" xmlns="http://www.w3.org/2000/svg">
<path fill-rule="evenodd" clip-rule="evenodd" d="M5.625 0.134766C5.86397 0.134766 6.05769 0.328489 6.05769 0.567458V2.44246C6.05769 2.45073 6.05746 2.45895 6.057 2.4671C6.50576 2.44674 6.98608 2.43758 7.5 2.43758C8.01392 2.43758 8.49424 2.44674 8.943 2.4671C8.94254 2.45895 8.94231 2.45073 8.94231 2.44246V0.567458C8.94231 0.328489 9.13603 0.134766 9.375 0.134766C9.61397 0.134766 9.80769 0.328489 9.80769 0.567458V2.44246C9.80769 2.47014 9.80509 2.49722 9.80012 2.52346C13.336 2.83773 14.5978 4.09722 14.9134 7.62988C14.926 7.77049 14.9371 7.91469 14.9467 8.06258C14.9559 8.20323 14.9638 8.34723 14.9705 8.49463C14.9908 8.94337 15 9.42367 15 9.93758C15 10.4513 14.9908 10.9315 14.9705 11.3801C14.9638 11.5276 14.9559 11.6718 14.9467 11.8126C14.9371 11.96 14.9261 12.1038 14.9136 12.244C14.5983 15.7755 13.338 17.0359 9.80643 17.3511C9.66623 17.3636 9.52244 17.3747 9.375 17.3843C9.2342 17.3935 9.09006 17.4014 8.94251 17.4081C8.49389 17.4284 8.01373 17.4376 7.5 17.4376C1.32375 17.4376 0 16.1138 0 9.93758C0 9.42367 0.00916461 8.94337 0.0295268 8.49463C0.036215 8.34723 0.0441114 8.20323 0.0532877 8.06258C0.0629358 7.91469 0.0739989 7.77049 0.0865609 7.62988C0.402183 4.09722 1.66397 2.83773 5.19988 2.52346C5.19491 2.49722 5.19231 2.47014 5.19231 2.44246L5.19231 0.567458C5.19231 0.328489 5.38603 0.134766 5.625 0.134766ZM13.4286 12.2806C13.6501 12.2513 13.859 12.2349 14.0461 12.2267C13.8912 13.8857 13.5281 14.8178 12.9542 15.3917C12.3803 15.9657 11.4481 16.3288 9.78914 16.4837C9.79733 16.2965 9.81368 16.0877 9.84301 15.8662C9.95482 15.0216 10.2472 14.0523 10.931 13.3685C11.6147 12.6848 12.5841 12.3924 13.4286 12.2806ZM8.98511 15.7526C8.94694 16.0409 8.92836 16.3093 8.92092 16.5428C8.48356 16.5629 8.01099 16.5722 7.5 16.5722C5.97569 16.5722 4.80984 16.4894 3.91026 16.2895C3.02051 16.0917 2.44518 15.7911 2.04583 15.3917C1.64647 14.9924 1.34585 14.4171 1.14811 13.5273C0.94819 12.6277 0.865385 11.4619 0.865385 9.93758C0.865385 9.41824 0.874939 8.9386 0.895805 8.49527H14.1042C14.1251 8.9386 14.1346 9.41824 14.1346 9.93758C14.1346 10.4486 14.1254 10.9211 14.1052 11.3585C13.8717 11.3659 13.6033 11.3845 13.315 11.4227C12.3893 11.5453 11.1978 11.8778 10.319 12.7566C9.44026 13.6354 9.10768 14.8269 8.98511 15.7526ZM2.34021 4.23135C1.59046 4.78101 1.13537 5.7275 0.95561 7.62988H14.0444C13.8646 5.7275 13.4095 4.78101 12.6598 4.23135C11.7758 3.58329 10.262 3.30296 7.5 3.30296C4.73797 3.30296 3.22419 3.58329 2.34021 4.23135Z" fill="#212135"/>
</svg>
