<svg width="80" height="92" viewBox="0 0 80 92" fill="none" xmlns="http://www.w3.org/2000/svg">
<path d="M23.5659 64.9668C22.2658 64.9668 21.2048 63.8984 21.2048 62.5834C21.2048 61.2683 22.2583 60.1999 23.5659 60.1999H38.883C40.1831 60.1999 41.244 61.2683 41.244 62.5834C41.244 63.8984 40.1905 64.9668 38.883 64.9668H23.5659ZM23.5659 31.5831C22.2658 31.5831 21.2123 30.5296 21.2123 29.2295C21.2123 27.9294 22.2658 26.8759 23.5659 26.8759H54.6558C55.9559 26.8759 57.0094 27.9294 57.0094 29.2295C57.0094 30.5296 55.9559 31.5831 54.6558 31.5831H23.5659ZM42.4769 87.1056C43.777 87.1056 44.8305 88.1591 44.8305 89.4592C44.8305 90.7593 43.777 91.8128 42.4769 91.8128H5.47679C3.9675 91.8128 2.60017 91.2001 1.60643 90.2064C0.612683 89.2127 0 87.8453 0 86.336V5.47679C0 3.9675 0.612683 2.60017 1.60643 1.60643C2.60017 0.612683 3.9675 0 5.47679 0H72.7375C74.2467 0 75.6141 0.612683 76.6078 1.60643C77.6016 2.60017 78.2142 3.9675 78.2142 5.47679V54.2449C78.2142 55.545 77.1607 56.5985 75.8606 56.5985C74.5606 56.5985 73.507 55.545 73.507 54.2449V5.47679C73.507 5.26758 73.4174 5.07332 73.2829 4.93135C73.1409 4.78939 72.9467 4.7072 72.7375 4.7072H5.47679C5.26758 4.7072 5.07332 4.79686 4.93135 4.93135C4.79686 5.08079 4.7072 5.26758 4.7072 5.47679V86.3286C4.7072 86.5378 4.79686 86.732 4.93135 86.874C5.07332 87.016 5.26758 87.0982 5.47679 87.0982H42.4769V87.1056ZM62.277 62.5385C62.277 61.2459 63.3305 60.1924 64.6231 60.1924C65.9158 60.1924 66.9693 61.2459 66.9693 62.5385L66.9394 73.268L77.6539 73.2978C78.9465 73.2978 80 74.3514 80 75.644C80 76.9366 78.9465 77.9901 77.6539 77.9901L66.9319 77.9602L66.902 88.6747C66.902 89.9673 65.8485 91.0208 64.5559 91.0208C63.2633 91.0208 62.2098 89.9673 62.2098 88.6747L62.2397 77.9527L51.5252 77.9229C50.2326 77.9229 49.179 76.8693 49.179 75.5767C49.179 74.2841 50.2326 73.2306 51.5252 73.2306L62.2546 73.2605L62.277 62.5385ZM23.5659 48.26C22.2658 48.26 21.2123 47.2065 21.2123 45.9064C21.2123 44.6063 22.2658 43.5528 23.5659 43.5528H54.6558C55.9559 43.5528 57.0094 44.6063 57.0094 45.9064C57.0094 47.2065 55.9559 48.26 54.6558 48.26H23.5659Z" fill="black"/>
</svg>
