<svg width="100" height="101" viewBox="0 0 100 101" fill="none" xmlns="http://www.w3.org/2000/svg">
<path d="M50 0.275391C63.8102 0.275391 76.3102 5.87435 85.3516 14.9238C94.401 23.9733 100 36.4733 100 50.2754C100 64.0856 94.401 76.5856 85.3516 85.627C76.3021 94.6764 63.8021 100.275 50 100.275C36.1979 100.275 23.6898 94.6764 14.6484 85.627C5.59896 76.5856 0 64.0856 0 50.2754C0 36.4652 5.59896 23.9652 14.6484 14.9238C23.6898 5.87435 36.1898 0.275391 50 0.275391ZM37.8337 71.1006C42.7165 81.2812 57.5195 81.6393 62.1989 71.1576C60.9212 69.8636 59.9772 68.4883 59.0413 67.113C58.8867 66.8851 58.7321 66.6654 58.5775 66.4375C56.3232 68.2279 53.5807 69.3672 50.0081 69.3591C46.1589 69.3509 43.2617 67.8779 40.8854 65.7051C40.7471 65.5749 40.6006 65.4447 40.4622 65.3063C40.1204 66.2503 39.6891 67.3815 39.2253 68.4395C38.7777 69.4567 38.2975 70.4089 37.8337 71.1006ZM75.4069 88.0277L76.5137 76.2438C72.4202 75.4463 68.0339 74.5837 63.501 71.9714C60.1074 83.2751 41.8701 84.6178 36.735 72.2643C32.666 74.3151 28.5238 75.487 23.8037 76.2113L25.4069 88.5566C32.4951 93.1221 40.9424 95.7751 50.0081 95.7751C59.4076 95.7751 68.1478 92.9186 75.4069 88.0277ZM13.4766 77.4157L13.6719 77.3018C18.5221 74.5999 31.1442 73.7048 36.3851 70.0508C36.7676 69.473 37.1826 68.6348 37.5814 67.7233C38.1836 66.348 38.7288 64.8506 39.0788 63.8252C37.6139 62.0999 36.3607 60.155 35.1563 58.2344L31.1849 51.9193C29.7363 49.7546 28.9795 47.777 28.9307 46.1494C28.9062 45.3844 29.0365 44.6927 29.3213 44.0824C29.6143 43.4395 30.07 42.9105 30.6885 42.4954C30.9733 42.3001 31.2988 42.1374 31.6488 42.0072C31.3883 38.5811 31.2988 34.2679 31.4616 30.6546C31.543 29.8001 31.7139 28.9375 31.9499 28.083C32.9671 24.4616 35.5062 21.54 38.6556 19.5381C40.389 18.4313 42.2933 17.6012 44.279 17.0397C45.5404 16.6816 43.2048 12.6533 44.5068 12.515C50.8138 11.8639 61.0107 17.6257 65.4134 22.3864C67.6188 24.7708 69.0023 27.9365 69.3034 32.1195L69.0592 42.4222C70.1579 42.7559 70.8659 43.4557 71.1507 44.5869C71.4681 45.8402 71.1263 47.6061 70.0602 50.0068C70.0439 50.0475 70.0195 50.0964 69.9951 50.137L65.4704 57.5915C63.8102 60.3258 62.1175 63.0765 59.9202 65.2412C60.1156 65.526 60.319 65.8109 60.5143 66.1038C61.4095 67.4141 62.3128 68.7324 63.4684 69.9043C63.5091 69.945 63.5417 69.9857 63.5661 70.0264C68.7744 73.7048 81.4535 74.5999 86.32 77.3099L86.5153 77.4238C92.155 69.8473 95.4915 60.4561 95.4915 50.2835C95.4915 37.7184 90.3971 26.3415 82.1615 18.1139C73.9421 9.87012 62.5651 4.77572 50 4.77572C37.4349 4.77572 26.0579 9.87012 17.8304 18.1058C9.59473 26.3333 4.50033 37.7103 4.50033 50.2754C4.50033 60.4479 7.83691 69.8392 13.4766 77.4157ZM33.9437 43.8464C33.0648 43.8789 32.3975 44.0661 31.9417 44.3672C31.6813 44.5381 31.4941 44.766 31.3721 45.0264C31.2337 45.3193 31.1768 45.6774 31.1849 46.0924C31.2174 47.2969 31.8522 48.8757 33.0729 50.6986L33.0892 50.723L37.0606 57.0381C38.6556 59.569 40.3239 62.1488 42.3991 64.0449C44.3929 65.8678 46.8099 67.1048 50.0163 67.113C53.4831 67.1211 56.014 65.8353 58.0729 63.9147C60.2132 61.9128 61.8978 59.1702 63.5661 56.4277L68.042 49.0628C68.8721 47.1585 69.1813 45.889 68.986 45.1403C68.8721 44.6927 68.3838 44.4811 67.5456 44.4323C67.3665 44.4242 67.1875 44.4242 67.0003 44.4242C66.805 44.4323 66.5934 44.4404 66.3737 44.4648C66.2516 44.473 66.1377 44.4648 66.0319 44.4404C65.6331 44.4648 65.2262 44.4323 64.8031 44.3753L66.333 37.5964C54.9723 39.3867 46.4681 30.9476 34.4564 35.9118L35.319 43.9033C34.8226 43.9277 34.3669 43.9115 33.9437 43.8464Z" fill="#74A02F"/>
</svg>
