<svg width="98" height="91" viewBox="0 0 98 91" fill="none" xmlns="http://www.w3.org/2000/svg">
<path d="M52.2061 16.3503C51.6637 16.9417 51.1214 17.5413 50.4515 18.2559L48.6092 20.2355L46.6951 18.3216C46.1289 17.7549 45.5547 17.1717 44.9964 16.6049C39.0788 10.6087 34.6206 6.09109 25.4411 5.96788C25.0822 5.95967 24.6994 5.96788 24.3006 5.98431C19.1645 6.17323 14.4272 8.11993 10.966 11.4466C7.55257 14.7321 5.37533 19.3894 5.30355 25.057C5.29557 25.4102 5.30355 25.7799 5.3195 26.1824C5.86979 42.0106 20.5762 55.8182 32.7703 67.2602C35.123 69.4698 37.38 71.589 39.5413 73.7328L48.5215 82.6449L59.8065 71.1125C61.6248 69.2562 63.6825 67.2274 65.8836 65.0589C69.624 61.3626 73.7871 57.2639 77.6631 53.1323C80.4464 50.167 83.0863 47.1854 85.3273 44.3187C87.5285 41.5095 89.3309 38.84 90.4873 36.458C92.3854 32.5481 92.9836 28.6383 92.5768 24.9831C92.1781 21.3772 90.7983 18.0095 88.7327 15.1346C86.6353 12.2187 83.8439 9.80378 80.6458 8.15278C76.9613 6.26358 72.7423 5.36826 68.4277 5.87753C60.9868 6.76463 57.0231 11.0934 52.2061 16.3503ZM48.4657 12.4733C53.9686 6.46893 58.5384 1.54879 67.8216 0.456334C73.181 -0.176139 78.4287 0.924528 82.9985 3.29014C86.9463 5.32719 90.3916 8.30064 92.9756 11.8901C95.5835 15.5207 97.3301 19.7837 97.8405 24.3671C98.3589 29.0162 97.6092 33.9692 95.2086 38.8975C93.8529 41.682 91.8431 44.6719 89.4425 47.7357C87.0898 50.742 84.3464 53.8469 81.4673 56.9107C77.5195 61.1244 73.3245 65.2642 69.5443 68.9934C67.3351 71.17 65.2695 73.2071 63.5309 74.9813L50.4036 88.3946L48.5614 90.2756L46.6951 88.4275L35.8488 77.6673C33.863 75.7041 31.5661 73.5439 29.1815 71.3015C16.2536 59.1531 0.645996 44.5076 0.0159505 26.3713C0 25.9277 0 25.4677 0 24.9913C0.0957031 17.7138 2.91895 11.7012 7.34521 7.44639C11.7316 3.23264 17.6891 0.768463 24.1012 0.530259C24.5399 0.513831 25.0024 0.505617 25.4889 0.513831C36.6862 0.669896 41.8063 5.72146 48.4657 12.4733Z" fill="#74A02F"/>
</svg>
