<svg width="30" height="33" viewBox="0 0 30 33" fill="none" xmlns="http://www.w3.org/2000/svg">
<path d="M0.678862 7.95138C0.00894547 8.32261 -0.228266 9.15301 0.255907 9.73205C0.714718 10.2808 1.24146 10.776 1.82568 11.2062C2.78134 11.9101 3.87208 12.4263 5.03562 12.7256C5.51565 12.849 6.00421 12.9346 6.4964 12.9818C6.85792 13.0165 7.05667 13.4438 6.83335 13.7188C6.81144 13.7458 6.78962 13.7729 6.76791 13.8001C5.62328 15.2318 4.78367 16.8659 4.29703 18.6091C3.81038 20.3523 3.68623 22.1704 3.93165 23.9596C4.11601 25.3037 4.5062 26.6117 5.08747 27.8419C5.40696 28.518 6.27047 28.7362 6.94038 28.3649L16.8741 22.8602C17.0751 22.7488 17.3321 22.8149 17.4481 23.0078L22.6407 31.6401C23.0275 32.2831 23.8841 32.5034 24.554 32.1322C25.2239 31.7609 25.4534 30.9388 25.0667 30.2958L19.8741 21.6635C19.7581 21.4706 19.8269 21.2239 20.0279 21.1126L29.3137 15.9669C29.9837 15.5956 30.2186 14.7688 29.7682 14.1652C28.9489 13.0669 27.9638 12.0886 26.8432 11.2633C25.3515 10.1647 23.649 9.35886 21.8328 8.89177C20.0166 8.42469 18.1224 8.30552 16.2582 8.54108C16.252 8.54186 16.2458 8.54265 16.2396 8.54344C15.8795 8.58941 15.5958 8.2089 15.7473 7.89193C15.9613 7.44397 16.1364 6.97848 16.2699 6.50019C16.5816 5.38342 16.6612 4.21865 16.504 3.07238C16.4078 2.37163 16.2244 1.68618 15.9587 1.03046C15.6783 0.338486 14.8104 0.120457 14.1405 0.491686L0.678862 7.95138Z" fill="#74A02F"/>
</svg>
