<svg width="32" height="33" viewBox="0 0 32 33" fill="none" xmlns="http://www.w3.org/2000/svg">
<path d="M29.6567 22.266L31.081 20.8341C32.3057 19.6051 32.307 17.6114 31.081 16.3811L18.2161 3.45673L15.2614 6.42542C14.8533 6.83537 14.1922 6.83544 13.784 6.42542C13.3759 6.01578 13.3759 5.35122 13.784 4.9412L16.7387 1.97251L15.6939 0.922858C14.4722 -0.30518 12.4897 -0.310203 11.2612 0.923298L9.83549 2.35452L9.11586 1.83965C7.08492 0.387075 4.2291 0.564644 2.39635 2.40714C0.586407 4.22578 0.349032 7.065 1.83185 9.1584L2.34335 9.88136L0.919033 11.3133C-0.305719 12.5423 -0.306969 14.5359 0.919033 15.7662L1.96379 16.8158L4.91848 13.8475C5.32654 13.4375 5.98773 13.4375 6.39586 13.8475C6.80392 14.2571 6.80392 14.922 6.39586 15.3317L3.44116 18.3001L16.3061 31.2246C17.5279 32.4527 19.5104 32.4577 20.7389 31.2242L22.1646 29.7926L22.8849 30.3092C24.8936 31.7516 27.7511 31.6022 29.6037 29.7404C31.4137 27.9217 31.6511 25.0825 30.1682 22.9891L29.6567 22.266ZM7.87386 10.8787L10.8286 7.90995C11.2366 7.5 11.8978 7.5 12.3059 7.90995C12.714 8.31959 12.714 8.98416 12.3059 9.39417L9.35124 12.3629C8.94317 12.7729 8.28205 12.7729 7.87386 12.3629C7.4658 11.9533 7.4658 11.2887 7.87386 10.8787ZM11.2088 20.7067C9.48049 20.7067 8.07455 19.2943 8.07455 17.5579C8.07455 15.8216 9.48049 14.4092 11.2088 14.4092C12.9371 14.4092 14.3431 15.8216 14.3431 17.5579C14.3431 19.2943 12.9372 20.7067 11.2088 20.7067ZM18.5221 24.9051C18.5221 25.4849 18.0541 25.9547 17.4774 25.9547C16.9006 25.9547 16.4326 25.4849 16.4326 24.9051V10.2108C16.4326 9.63095 16.9006 9.16116 17.4774 9.16116C18.0541 9.16116 18.5221 9.63095 18.5221 10.2108V24.9051ZM23.746 20.7067C22.0176 20.7067 20.6117 19.2943 20.6117 17.5579C20.6117 15.8216 22.0176 14.4092 23.746 14.4092C25.4743 14.4092 26.8802 15.8216 26.8802 17.5579C26.8802 19.2943 25.4743 20.7067 23.746 20.7067Z" fill="white"/>
</svg>
