<svg width="44" height="44" viewBox="0 0 44 44" fill="none" xmlns="http://www.w3.org/2000/svg">
<circle cx="22" cy="22" r="21.5" fill="white" stroke="#74A02F"/>
<path d="M34.0444 22.3911H28.5703V18.3297" stroke="#74A02F" stroke-width="1.5" stroke-miterlimit="10" stroke-linecap="round" stroke-linejoin="round"/>
<path d="M12.1868 16.6833V14.8824C12.1868 14.3951 12.5975 14 13.1036 14H25.1759C25.682 14 26.0923 14.3951 26.0923 14.8824V26.8134" stroke="#74A02F" stroke-width="1.5" stroke-miterlimit="10" stroke-linecap="round" stroke-linejoin="round"/>
<path d="M26.0923 28.4624H13.4766C12.5975 28.4624 12.1868 28.0673 12.1868 27.58V23.8322" stroke="#74A02F" stroke-width="1.5" stroke-miterlimit="10" stroke-linecap="round" stroke-linejoin="round"/>
<path d="M26.0923 16.3834H31.17C31.7233 16.3834 32.2473 16.623 32.5968 17.036L35.2983 20.2271C35.9883 21.0426 36.3651 22.062 36.3651 23.114V27.58C36.3651 28.0673 35.9548 28.4624 35.4487 28.4624H30.9173H26.0923" stroke="#74A02F" stroke-width="1.5" stroke-miterlimit="10" stroke-linecap="round" stroke-linejoin="round"/>
<path d="M20.1963 28.4624C20.1963 29.8635 19.0166 31 17.5608 31C16.1053 31 14.9253 29.8635 14.9253 28.4624C14.9253 27.0607 16.1053 25.9252 17.5608 25.9252C19.0166 25.9252 20.1963 27.0607 20.1963 28.4624Z" stroke="#74A02F" stroke-width="1.5" stroke-miterlimit="10" stroke-linecap="round" stroke-linejoin="round"/>
<path d="M33.5527 28.4624C33.5527 29.8635 32.373 31 30.9172 31C29.4614 31 28.2817 29.8635 28.2817 28.4624C28.2817 27.0607 29.4614 25.9252 30.9172 25.9252C32.373 25.9252 33.5527 27.0607 33.5527 28.4624Z" stroke="#74A02F" stroke-width="1.5" stroke-miterlimit="10" stroke-linecap="round" stroke-linejoin="round"/>
<path d="M9.81763 23.8323H14.5807" stroke="#74A02F" stroke-width="1.5" stroke-miterlimit="10" stroke-linecap="round" stroke-linejoin="round"/>
<path d="M8.21143 21.4491H13.7841" stroke="#74A02F" stroke-width="1.5" stroke-miterlimit="10" stroke-linecap="round" stroke-linejoin="round"/>
<path d="M6.60571 19.0664H12.9875" stroke="#74A02F" stroke-width="1.5" stroke-miterlimit="10" stroke-linecap="round" stroke-linejoin="round"/>
<path d="M5 16.6832H12.191" stroke="#74A02F" stroke-width="1.5" stroke-miterlimit="10" stroke-linecap="round" stroke-linejoin="round"/>
</svg>
