<svg width="38" height="35" viewBox="0 0 38 35" fill="none" xmlns="http://www.w3.org/2000/svg">
<path d="M27.8256 0.491842L9.52314 4.99382C-2.78178 8.04517 -3.22095 14.264 8.54741 18.8216L13.7441 20.8303L15.153 25.9772C18.3544 37.6352 24.9361 38.0521 29.7472 26.9017L36.9111 10.3333C40.1046 2.89262 36.0348 -1.53573 27.8256 0.491842ZM27.7481 10.6399L19.7057 17.3393C19.3898 17.6023 19.0023 17.71 18.6267 17.6861C18.2491 17.6622 17.8815 17.5069 17.6052 17.2062C17.3469 16.9235 17.2157 16.556 17.2435 16.1832C17.2694 15.8103 17.4502 15.4624 17.7444 15.2147L25.7867 8.51515C26.3987 8.00675 27.3506 8.06701 27.8871 8.64828C28.4237 9.22955 28.3601 10.1315 27.7481 10.6399Z" fill="#74A02F"/>
</svg>
