<svg width="33" height="34" viewBox="0 0 33 34" fill="none" xmlns="http://www.w3.org/2000/svg">
<path d="M21 32.8406C17.9696 33.0545 14.9942 33.0531 12 32.8365V32.8205V32.8027V32.7848V32.7667V32.7486V32.7302V32.7118V32.6932V32.6745V32.6556V32.6366V32.6175V32.5982V32.5789V32.5593V32.5397V32.5199V32.5V32.48V32.4599V32.4396V32.4192V32.3987V32.378V32.3573V32.3364V32.3154V32.2942V32.273V32.2516V32.2302V32.2086V32.1869V32.165V32.1431V32.121V32.0989V32.0766V32.0542V32.0317V32.0091V31.9864V31.9636V31.9406V31.9176V31.8945V31.8712V31.8479V31.8244V31.8009V31.7772V31.7535V31.7296V31.7057V31.6816V31.6575V31.6332V31.6089V31.5844V31.5599V31.5353V31.5106V31.4858V31.4609V31.4359V31.4108V31.3856V31.3604V31.335V31.3096V31.2841V31.2585V31.2328V31.2071V31.1812V31.1553V31.1293V31.1032V31.077V31.0508V31.0244V30.998V30.9716V30.945V30.9184V30.8917V30.8649V30.8381V30.8111V30.7841V30.7571V30.73V30.7028V30.6755V30.6482V30.6208V30.5933V30.5658V30.5382V30.5106V30.4828V30.4551V30.4272V30.3993V30.3714V30.3434V30.3153V30.2872V30.259V30.2308V30.2025V30.1741V30.1458V30.1173V30.0888V30.0603V30.0317V30.003V29.9743V29.9456V29.9168V29.888V29.8591V29.8302V29.8012V29.7722V29.7432V29.7141V29.685V29.6558V29.6266V29.5974V29.5681V29.5388V29.5094V29.48V29.4506V29.4212V29.3917V29.3622V29.3326V29.3031V29.2735V29.2438V29.2142V29.1845V29.1548V29.125V29.0953V29.0655V29.0357V29.0059V28.976V28.9462V28.9163V28.8864V28.8565V28.8265V28.7966V28.7666V28.7366V28.7066V28.6766V28.6466V28.6165V28.5865V28.5564V28.5264V28.4963V28.4662V28.4361V28.406V28.3759V28.3458V28.3157V28.2856V28.2555V28.2254V28.1952V28.1651V28.135V28.1049V28.0748V28.0447V28.0146V27.9845V27.9544V27.9243V27.8942V27.8642V27.8341V27.8041V27.774V27.744V27.714V27.684V27.654V27.624V27.594V27.5641V27.5342V27.5043V27.4744V27.4445V27.4146V27.3848V27.355V27.3252V27.2954V27.2657V27.236V27.2063V27.1766V27.147V27.1174V27.0878V27.0583V27.0287V26.9992V26.9698V26.9404V26.911V26.8816V26.8523V26.823V26.7937V26.7645V26.7354V26.7062V26.6771V26.6481V26.619V26.5901V26.5611V26.5323V26.5034V26.4746V26.4459V26.4172V26.3885V26.3599V26.3313V26.3028V26.2744V26.2459V26.2176V26.1893V26.161V26.1328V26.1047V26.0766V26.0486V26.0206V25.9927V25.9649V25.9371V25.9093V25.8817V25.8541V25.8265V25.799V25.7716V25.7443V25.717V25.6898V25.6626V25.6356V25.6085V25.5816V25.5547V25.5279V25.5012V25.4746V25.448V25.4215V25.3951V25.3687V25.3425V25.3163V25.2902V25.2641V25.2382V25.2123V25.1865V25.1608V25.1352V25.1096V25.0842V25.0588V25.0335V25.0083V24.9832V24.9582V24.9333V24.9085V24.8837V24.8591V24.8345V24.8101V24.7857V24.7614V24.7372V24.7132V24.6892V24.6653V24.6415V24.6178V24.5943V24.5708V24.5474V24.5241V24.5009V24.4779V24.4549V24.4321V24.4093V24.3867V24.3642V24.3417V24.3194V24.2972V24.2752V24.2532V24.2313V24.2096V24.1879V24.1664V24.145V24.1238V24.1026V24.0816V24.0606V24.0398V24.0192V23.9986V23.9782V23.9579V23.9377V23.9176V23.8977V23.8779V23.8582V23.8386V23.8192V23.7999V23.7808V23.7617V23.7428V23.7241V23.7054V23.687V23.6686V23.6504V23.6323V23.6143V23.5965V23.5789V23.5613V23.5439V23.5267V23.5096V23.4926V23.4758V23.4592V23.4426V23.4263V23.41V23.3939V23.378V23.3622V23.3466V23.3311V23.3158V23.3006V23.2856V23.2707V23.256V23.2415V23.2271V23.2128V23.1987V23.1848V23.1711V23.1575V23.144V23.1307V23.1176V23.1047V23.0919V23.0793V23.0668V23.0545V23.0424V23.0305V23.0187V23.0071V22.9956V22.9844V22.9733V22.9623V22.9516V22.941V22.9306V22.9204V22.9104V22.9005V22.8908V22.8813V22.872V22.8628V22.8539V22.8451V22.8365V22.8281C12 22.4323 12.201 21.9606 12.5777 21.5716C12.9564 21.1805 13.3992 20.9885 13.75 20.9885H13.7581H13.7662H13.7743H13.7825H13.7907H13.7989H13.8072H13.8154H13.8238H13.8321H13.8405H13.8489H13.8573H13.8658H13.8743H13.8828H13.8914H13.9H13.9086H13.9173H13.9259H13.9346H13.9434H13.9521H13.9609H13.9697H13.9786H13.9875H13.9964H14.0053H14.0143H14.0232H14.0323H14.0413H14.0504H14.0595H14.0686H14.0777H14.0869H14.0961H14.1054H14.1146H14.1239H14.1332H14.1425H14.1519H14.1613H14.1707H14.1801H14.1896H14.1991H14.2086H14.2181H14.2277H14.2373H14.2469H14.2566H14.2662H14.2759H14.2856H14.2954H14.3051H14.3149H14.3247H14.3345H14.3444H14.3543H14.3642H14.3741H14.384H14.394H14.404H14.414H14.4241H14.4341H14.4442H14.4543H14.4644H14.4746H14.4847H14.4949H14.5051H14.5154H14.5256H14.5359H14.5462H14.5565H14.5669H14.5772H14.5876H14.598H14.6084H14.6189H14.6293H14.6398H14.6503H14.6608H14.6714H14.6819H14.6925H14.7031H14.7137H14.7244H14.735H14.7457H14.7564H14.7671H14.7778H14.7886H14.7994H14.8101H14.8209H14.8318H14.8426H14.8534H14.8643H14.8752H14.8861H14.897H14.908H14.9189H14.9299H14.9409H14.9519H14.9629H14.974H14.985H14.9961H15.0072H15.0183H15.0294H15.0405H15.0517H15.0628H15.074H15.0852H15.0964H15.1076H15.1189H15.1301H15.1414H15.1527H15.164H15.1753H15.1866H15.1979H15.2093H15.2206H15.232H15.2434H15.2548H15.2662H15.2776H15.2891H15.3005H15.312H15.3235H15.335H15.3465H15.358H15.3695H15.381H15.3926H15.4041H15.4157H15.4273H15.4389H15.4505H15.4621H15.4737H15.4854H15.497H15.5087H15.5203H15.532H15.5437H15.5554H15.5671H15.5788H15.5905H15.6023H15.614H15.6258H15.6375H15.6493H15.6611H15.6729H15.6847H15.6965H15.7083H15.7201H15.7319H15.7438H15.7556H15.7675H15.7793H15.7912H15.8031H15.8149H15.8268H15.8387H15.8506H15.8625H15.8745H15.8864H15.8983H15.9102H15.9222H15.9341H15.9461H15.958H15.97H15.982H15.9939H16.0059H16.0179H16.0299H16.0419H16.0539H16.0659H16.0779H16.0899H16.1019H16.1139H16.126H16.138H16.15H16.1621H16.1741H16.1861H16.1982H16.2102H16.2223H16.2343H16.2464H16.2585H16.2705H16.2826H16.2946H16.3067H16.3188H16.3309H16.3429H16.355H16.3671H16.3792H16.3912H16.4033H16.4154H16.4275H16.4396H16.4517H16.4637H16.4758H16.4879H16.5H16.5121H16.5242H16.5362H16.5483H16.5604H16.5725H16.5846H16.5967H16.6087H16.6208H16.6329H16.645H16.6571H16.6691H16.6812H16.6933H16.7053H16.7174H16.7295H16.7415H16.7536H16.7656H16.7777H16.7897H16.8018H16.8138H16.8259H16.8379H16.85H16.862H16.874H16.886H16.8981H16.9101H16.9221H16.9341H16.9461H16.9581H16.9701H16.9821H16.9941H17.006H17.018H17.03H17.0419H17.0539H17.0659H17.0778H17.0897H17.1017H17.1136H17.1255H17.1374H17.1494H17.1613H17.1732H17.185H17.1969H17.2088H17.2207H17.2325H17.2444H17.2562H17.2681H17.2799H17.2917H17.3035H17.3153H17.3271H17.3389H17.3507H17.3625H17.3742H17.386H17.3977H17.4095H17.4212H17.4329H17.4446H17.4563H17.468H17.4797H17.4913H17.503H17.5146H17.5263H17.5379H17.5495H17.5611H17.5727H17.5843H17.5959H17.6074H17.619H17.6305H17.642H17.6535H17.665H17.6765H17.688H17.6995H17.7109H17.7224H17.7338H17.7452H17.7566H17.768H17.7794H17.7907H17.8021H17.8134H17.8247H17.836H17.8473H17.8586H17.8699H17.8811H17.8924H17.9036H17.9148H17.926H17.9372H17.9483H17.9595H17.9706H17.9817H17.9928H18.0039H18.015H18.026H18.0371H18.0481H18.0591H18.0701H18.0811H18.092H18.1029H18.1139H18.1248H18.1357H18.1465H18.1574H18.1682H18.179H18.1898H18.2006H18.2114H18.2221H18.2329H18.2436H18.2543H18.265H18.2756H18.2862H18.2969H18.3075H18.318H18.3286H18.3391H18.3497H18.3602H18.3706H18.3811H18.3916H18.402H18.4124H18.4228H18.4331H18.4435H18.4538H18.4641H18.4743H18.4846H18.4948H18.5051H18.5152H18.5254H18.5356H18.5457H18.5558H18.5659H18.5759H18.586H18.596H18.606H18.6159H18.6259H18.6358H18.6457H18.6556H18.6655H18.6753H18.6851H18.6949H18.7046H18.7144H18.7241H18.7338H18.7434H18.7531H18.7627H18.7723H18.7818H18.7914H18.8009H18.8104H18.8198H18.8293H18.8387H18.8481H18.8574H18.8668H18.8761H18.8854H18.8946H18.9039H18.9131H18.9222H18.9314H18.9405H18.9496H18.9587H18.9677H18.9767H18.9857H18.9947H19.0036H19.0125H19.0214H19.0302H19.0391H19.0479H19.0566H19.0653H19.0741H19.0827H19.0914H19.1H19.1086H19.1171H19.1257H19.1342H19.1426H19.1511H19.1595H19.1679H19.1762H19.1845H19.1928H19.2011H19.2093H19.2175H19.2257H19.2338H19.2419H19.25C19.6008 20.9885 20.0436 21.1805 20.4223 21.5716C20.799 21.9606 21 22.4323 21 22.8281V28.8295V28.8594V28.8894V28.9193V28.9492V28.9791V29.0089V29.0388V29.0686V29.0984V29.1282V29.1579V29.1876V29.2173V29.247V29.2767V29.3063V29.3359V29.3654V29.395V29.4245V29.5421V29.5715V29.6007V29.63V29.6592V29.6884V29.7175V29.7467V29.7757V29.8047V29.8337V29.8626V29.8915V29.9204V29.9492V29.9779V30.0067V30.0353V30.0639V30.0925V30.121V30.1495V30.1779V30.2062V30.2345V30.2628V30.291V30.3191V30.3472V30.4032V30.4311V30.459V30.4868V30.5145V30.5422V30.5698V30.5973V30.6248V30.6522V30.6795V32.2566V32.278V32.2992V32.3204V32.3414V32.3623V32.3831V32.4037V32.4243V32.5052V32.5251V32.5448V32.5645V32.584V32.6034V32.6227V32.6418V32.6608V32.6797V32.6984V32.717V32.7355V32.7538V32.772V32.7901V32.808V32.8258V32.8406ZM10 32.6556V32.6603C9.40476 32.5985 8.80802 32.5282 8.20918 32.4495C6.16985 32.1815 4.81036 31.6613 3.87862 30.8825C2.96426 30.1181 2.34801 29.0086 1.98904 27.3185C0.610121 20.8261 0.98007 15.0553 1.2902 12.9088C1.29013 12.91 1.29023 12.9107 1.29052 12.9108C1.29463 12.9122 1.33878 12.7977 1.53826 12.5351C1.7567 12.2475 2.08066 11.8844 2.50362 11.455C3.34665 10.5989 4.51232 9.54979 5.83448 8.42304C8.47447 6.17325 11.6722 3.66994 14.0004 1.88397C15.5309 0.709899 17.601 0.704923 19.1357 1.87166C21.4833 3.65642 24.7096 6.16292 27.3568 8.41565C28.6829 9.54411 29.8453 10.5934 30.6758 11.448C31.0927 11.8771 31.4059 12.2367 31.6112 12.5186C31.7138 12.6595 31.7761 12.7628 31.8101 12.8313C31.8158 12.8426 31.8201 12.852 31.8234 12.8594C31.8253 12.8898 31.8274 12.9208 31.8294 12.9525C31.9789 15.2653 32.3469 20.9608 31.1283 27.3386C30.8053 29.029 30.1922 30.134 29.2744 30.8936C28.3351 31.6711 26.9579 32.1863 24.9148 32.4492C24.2729 32.5318 23.6348 32.605 23 32.669V32.6608V32.6418V32.6227V32.6034V32.584V32.5645V32.5448V32.5251V32.5052V32.4851V32.465V32.4447V32.4243V32.4037V32.3831V32.3623V32.3414V32.3204V32.2992V32.278V32.2566V32.2351V32.2135V32.1918V32.1699V32.148V32.1259V32.1037V32.0815V31.8992V31.5151V31.1075V31.0813V31.055V31.0287V31.0022V30.8958V30.869V30.8422V30.8152V30.7882V30.7612V30.734V30.7068V30.6795V30.6522V30.6248V30.5973V30.5698V30.5422V30.5145V30.4868V30.459V30.4311V30.4032V30.3472V30.3191V30.291V30.2628V30.2345V30.2062V30.1779V30.1495V30.121V30.0925V30.0639V30.0353V30.0067V29.9779V29.9492V29.9204V29.8915V29.8626V29.8337V29.8047V29.7757V29.7467V29.7175V29.6884V29.6592V29.63V29.6007V29.5715V29.5421V29.4245V29.395V29.3654V29.3359V29.3063V29.2767V29.247V29.2173V29.1876V29.1579V29.1282V29.0984V29.0686V29.0388V29.0089V28.9791V28.9492V28.9193V28.8894V28.8594V28.8295V22.8281C23 21.8041 22.5135 20.856 21.859 20.1802C21.2064 19.5064 20.2742 18.9885 19.25 18.9885H19.2419H19.2338H19.2257H19.2175H19.2093H19.2011H19.1928H19.1845H19.1762H19.1679H19.1595H19.1511H19.1426H19.1342H19.1257H19.1171H19.1086H19.1H19.0914H19.0827H19.0741H19.0653H19.0566H19.0479H19.0391H19.0302H19.0214H19.0125H19.0036H18.9947H18.9857H18.9767H18.9677H18.9587H18.9496H18.9405H18.9314H18.9222H18.9131H18.9039H18.8946H18.8854H18.8761H18.8668H18.8574H18.8481H18.8387H18.8293H18.8198H18.8104H18.8009H18.7914H18.7818H18.7723H18.7627H18.7531H18.7434H18.7338H18.7241H18.7144H18.7046H18.6949H18.6851H18.6753H18.6655H18.6556H18.6457H18.6358H18.6259H18.6159H18.606H18.596H18.586H18.5759H18.5659H18.5558H18.5457H18.5356H18.5254H18.5152H18.5051H18.4948H18.4846H18.4743H18.4641H18.4538H18.4435H18.4331H18.4228H18.4124H18.402H18.3916H18.3811H18.3706H18.3602H18.3497H18.3391H18.3286H18.318H18.3075H18.2969H18.2862H18.2756H18.265H18.2543H18.2436H18.2329H18.2221H18.2114H18.2006H18.1898H18.179H18.1682H18.1574H18.1465H18.1357H18.1248H18.1139H18.1029H18.092H18.0811H18.0701H18.0591H18.0481H18.0371H18.026H18.015H18.0039H17.9928H17.9817H17.9706H17.9595H17.9483H17.9372H17.926H17.9148H17.9036H17.8924H17.8811H17.8699H17.8586H17.8473H17.836H17.8247H17.8134H17.8021H17.7907H17.7794H17.768H17.7566H17.7452H17.7338H17.7224H17.7109H17.6995H17.688H17.6765H17.665H17.6535H17.642H17.6305H17.619H17.6074H17.5959H17.5843H17.5727H17.5611H17.5495H17.5379H17.5263H17.5146H17.503H17.4913H17.4797H17.468H17.4563H17.4446H17.4329H17.4212H17.4095H17.3977H17.386H17.3742H17.3625H17.3507H17.3389H17.3271H17.3153H17.3035H17.2917H17.2799H17.2681H17.2562H17.2444H17.2325H17.2207H17.2088H17.1969H17.185H17.1732H17.1613H17.1494H17.1374H17.1255H17.1136H17.1017H17.0897H17.0778H17.0659H17.0539H17.0419H17.03H17.018H17.006H16.9941H16.9821H16.9701H16.9581H16.9461H16.9341H16.9221H16.9101H16.8981H16.886H16.874H16.862H16.85H16.8379H16.8259H16.8138H16.8018H16.7897H16.7777H16.7656H16.7536H16.7415H16.7295H16.7174H16.7053H16.6933H16.6812H16.6691H16.6571H16.645H16.6329H16.6208H16.6087H16.5967H16.5846H16.5725H16.5604H16.5483H16.5362H16.5242H16.5121H16.5H16.4879H16.4758H16.4637H16.4517H16.4396H16.4275H16.4154H16.4033H16.3912H16.3792H16.3671H16.355H16.3429H16.3309H16.3188H16.3067H16.2946H16.2826H16.2705H16.2585H16.2464H16.2343H16.2223H16.2102H16.1982H16.1861H16.1741H16.1621H16.15H16.138H16.126H16.1139H16.1019H16.0899H16.0779H16.0659H16.0539H16.0419H16.0299H16.0179H16.0059H15.9939H15.982H15.97H15.958H15.9461H15.9341H15.9222H15.9102H15.8983H15.8864H15.8745H15.8625H15.8506H15.8387H15.8268H15.8149H15.8031H15.7912H15.7793H15.7675H15.7556H15.7438H15.7319H15.7201H15.7083H15.6965H15.6847H15.6729H15.6611H15.6493H15.6375H15.6258H15.614H15.6023H15.5905H15.5788H15.5671H15.5554H15.5437H15.532H15.5203H15.5087H15.497H15.4854H15.4737H15.4621H15.4505H15.4389H15.4273H15.4157H15.4041H15.3926H15.381H15.3695H15.358H15.3465H15.335H15.3235H15.312H15.3005H15.2891H15.2776H15.2662H15.2548H15.2434H15.232H15.2206H15.2093H15.1979H15.1866H15.1753H15.164H15.1527H15.1414H15.1301H15.1189H15.1076H15.0964H15.0852H15.074H15.0628H15.0517H15.0405H15.0294H15.0183H15.0072H14.9961H14.985H14.974H14.9629H14.9519H14.9409H14.9299H14.9189H14.908H14.897H14.8861H14.8752H14.8643H14.8534H14.8426H14.8318H14.8209H14.8101H14.7994H14.7886H14.7778H14.7671H14.7564H14.7457H14.735H14.7244H14.7137H14.7031H14.6925H14.6819H14.6714H14.6608H14.6503H14.6398H14.6293H14.6189H14.6084H14.598H14.5876H14.5772H14.5669H14.5565H14.5462H14.5359H14.5256H14.5154H14.5051H14.4949H14.4847H14.4746H14.4644H14.4543H14.4442H14.4341H14.4241H14.414H14.404H14.394H14.384H14.3741H14.3642H14.3543H14.3444H14.3345H14.3247H14.3149H14.3051H14.2954H14.2856H14.2759H14.2662H14.2566H14.2469H14.2373H14.2277H14.2181H14.2086H14.1991H14.1896H14.1801H14.1707H14.1613H14.1519H14.1425H14.1332H14.1239H14.1146H14.1054H14.0961H14.0869H14.0777H14.0686H14.0595H14.0504H14.0413H14.0323H14.0232H14.0143H14.0053H13.9964H13.9875H13.9786H13.9697H13.9609H13.9521H13.9434H13.9346H13.9259H13.9173H13.9086H13.9H13.8914H13.8828H13.8743H13.8658H13.8573H13.8489H13.8405H13.8321H13.8238H13.8154H13.8072H13.7989H13.7907H13.7825H13.7743H13.7662H13.7581H13.75C12.7258 18.9885 11.7936 19.5064 11.141 20.1802C10.4865 20.856 10 21.8041 10 22.8281V22.8365V22.8451V22.8539V22.8628V22.872V22.8813V22.8908V22.9005V22.9104V22.9204V22.9306V22.941V22.9516V22.9623V22.9733V22.9844V22.9956V23.0071V23.0187V23.0305V23.0424V23.0545V23.0668V23.0793V23.0919V23.1047V23.1176V23.1307V23.144V23.1575V23.1711V23.1848V23.1987V23.2128V23.2271V23.2415V23.256V23.2707V23.2856V23.3006V23.3158V23.3311V23.3466V23.3622V23.378V23.3939V23.41V23.4263V23.4426V23.4592V23.4758V23.4926V23.5096V23.5267V23.5439V23.5613V23.5789V23.5965V23.6143V23.6323V23.6504V23.6686V23.687V23.7054V23.7241V23.7428V23.7617V23.7808V23.7999V23.8192V23.8386V23.8582V23.8779V23.8977V23.9176V23.9377V23.9579V23.9782V23.9986V24.0192V24.0398V24.0606V24.0816V24.1026V24.1238V24.145V24.1664V24.1879V24.2096V24.2313V24.2532V24.2752V24.2972V24.3194V24.3417V24.3642V24.3867V24.4093V24.4321V24.4549V24.4779V24.5009V24.5241V24.5474V24.5708V24.5943V24.6178V24.6415V24.6653V24.6892V24.7132V24.7372V24.7614V24.7857V24.8101V24.8345V24.8591V24.8837V24.9085V24.9333V24.9582V24.9832V25.0083V25.0335V25.0588V25.0842V25.1096V25.1352V25.1608V25.1865V25.2123V25.2382V25.2641V25.2902V25.3163V25.3425V25.3687V25.3951V25.4215V25.448V25.4746V25.5012V25.5279V25.5547V25.5816V25.6085V25.6356V25.6626V25.6898V25.717V25.7443V25.7716V25.799V25.8265V25.8541V25.8817V25.9093V25.9371V25.9649V25.9927V26.0206V26.0486V26.0766V26.1047V26.1328V26.161V26.1893V26.2176V26.2459V26.2744V26.3028V26.3313V26.3599V26.3885V26.4172V26.4459V26.4746V26.5034V26.5323V26.5611V26.5901V26.619V26.6481V26.6771V26.7062V26.7354V26.7645V26.7937V26.823V26.8523V26.8816V26.911V26.9404V26.9698V26.9992V27.0287V27.0583V27.0878V27.1174V27.147V27.1766V27.2063V27.236V27.2657V27.2954V27.3252V27.355V27.3848V27.4146V27.4445V27.4744V27.5043V27.5342V27.5641V27.594V27.624V27.654V27.684V27.714V27.744V27.774V27.8041V27.8341V27.8642V27.8942V27.9243V27.9544V27.9845V28.0146V28.0447V28.0748V28.1049V28.135V28.1651V28.1952V28.2254V28.2555V28.2856V28.3157V28.3458V28.3759V28.406V28.4361V28.4662V28.4963V28.5264V28.5564V28.5865V28.6165V28.6466V28.6766V28.7066V28.7366V28.7666V28.7966V28.8265V28.8565V28.8864V28.9163V28.9462V28.976V29.0059V29.0357V29.0655V29.0953V29.125V29.1548V29.1845V29.2142V29.2438V29.2735V29.3031V29.3326V29.3622V29.3917V29.4212V29.4506V29.48V29.5094V29.5388V29.5681V29.5974V29.6266V29.6558V29.685V29.7141V29.7432V29.7722V29.8012V29.8302V29.8591V29.888V29.9168V29.9456V29.9743V30.003V30.0317V30.0603V30.0888V30.1173V30.1458V30.1741V30.2025V30.2308V30.259V30.2872V30.3153V30.3434V30.3714V30.3993V30.4272V30.4551V30.4828V30.5106V30.5382V30.5658V30.5933V30.6208V30.6482V30.6755V30.7028V30.73V30.7571V30.7841V30.8111V30.8381V30.8649V30.8917V30.9184V30.945V30.9716V30.998V31.0244V31.0508V31.077V31.1032V31.1293V31.1553V31.1812V31.2071V31.2328V31.2585V31.2841V31.3096V31.335V31.3604V31.3856V31.4108V31.4359V31.4609V31.4858V31.5106V31.5353V31.5599V31.5844V31.6089V31.6332V31.6575V31.6816V31.7057V31.7296V31.7535V31.7772V31.8009V31.8244V31.8479V31.8712V31.8945V31.9176V31.9406V31.9636V31.9864V32.0091V32.0317V32.0542V32.0766V32.0989V32.121V32.1431V32.165V32.1869V32.2086V32.2302V32.2516V32.273V32.2942V32.3154V32.3364V32.3573V32.378V32.3987V32.4192V32.4396V32.4599V32.48V32.5V32.5199V32.5397V32.5593V32.5789V32.5982V32.6175V32.6366V32.6556ZM31.8323 12.8816C31.8323 12.8816 31.8321 12.881 31.8317 12.88L31.8323 12.8816Z" stroke="#74A02F" stroke-width="2" stroke-linecap="round" stroke-linejoin="round"/>
</svg>
