<svg width="20" height="22" viewBox="0 0 20 22" fill="none" xmlns="http://www.w3.org/2000/svg">
<path fill-rule="evenodd" clip-rule="evenodd" d="M10 0C12.7613 0 15.2617 1.20771 17.0711 3.15961C18.8805 5.1115 20 7.80884 20 10.7877C20 13.7665 18.8805 16.4638 17.0711 18.4157C15.2617 20.3676 12.7613 21.5753 10 21.5753C7.23867 21.5753 4.73828 20.3676 2.92891 18.4157C1.11953 16.4638 0 13.7665 0 10.7877C0 7.80884 1.11953 5.1115 2.92891 3.15961C4.73828 1.20771 7.23867 0 10 0ZM9.60156 8.0857C9.32539 8.08359 9.08945 7.97908 8.89062 7.76712C8.69258 7.55601 8.59531 7.29895 8.59531 6.99808C8.59531 6.70268 8.69258 6.44774 8.89062 6.2362C9.08945 6.02466 9.32539 5.91805 9.60156 5.91805C9.87305 5.91805 10.1094 6.02466 10.3078 6.2362C10.5086 6.44774 10.6074 6.70268 10.6074 6.99808C10.6074 7.19698 10.5605 7.38028 10.4684 7.54336C10.3762 7.70897 10.2555 7.84129 10.1047 7.93821C9.95352 8.03513 9.78555 8.08359 9.60156 8.0857ZM10.693 14.4222H11.8316V15.6577H8.16797V14.4222H9.29141V10.531H8.16797V9.29552H10.693V14.4222Z" fill="black" fill-opacity="0.82"/>
</svg>
