<svg width="25" height="25" viewBox="0 0 25 25" fill="none" xmlns="http://www.w3.org/2000/svg">
<path d="M10.4167 10.5621C10.4167 11.7288 11.3494 12.6746 12.5 12.6746C13.6506 12.6746 14.5833 11.7288 14.5833 10.5621C14.5833 9.39548 13.6506 8.44971 12.5 8.44971C11.3494 8.44971 10.4167 9.39548 10.4167 10.5621Z" fill="#74A02F"/>
<path fill-rule="evenodd" clip-rule="evenodd" d="M10.98 24.6268C7.96546 23.0683 1.41399 19.0109 0.182364 12.6746C-0.844156 7.3935 2.35643 0 12.5 0C22.6436 0 25.8441 7.3935 24.8176 12.6746C23.5861 19.0109 17.0346 23.0683 14.02 24.6268C13.0575 25.1244 11.9425 25.1244 10.98 24.6268ZM8.33333 10.5621C8.33333 12.8955 10.1988 14.787 12.5 14.787C14.8012 14.787 16.6667 12.8955 16.6667 10.5621C16.6667 8.22882 14.8012 6.33729 12.5 6.33729C10.1988 6.33729 8.33333 8.22882 8.33333 10.5621Z" fill="#74A02F"/>
</svg>
