<svg width="31" height="30" viewBox="0 0 31 30" fill="none" xmlns="http://www.w3.org/2000/svg">
<path d="M29.6402 24.0687C29.6402 24.5745 29.5281 25.0955 29.29 25.6013C29.0521 26.1071 28.744 26.5843 28.3381 27.0345C27.6519 27.7932 26.8959 28.3412 26.0418 28.6919C25.2018 29.0426 24.2917 29.2263 23.3117 29.2263C21.8836 29.2263 20.3575 28.8891 18.7473 28.1995C17.1372 27.5116 15.5271 26.5843 13.931 25.4176C12.3043 24.2238 10.7692 22.9087 9.3387 21.484C7.92288 20.0542 6.61706 18.5183 5.43243 16.8895C4.28435 15.2878 3.36029 13.686 2.68825 12.0978C2.0162 10.496 1.68018 8.96512 1.68018 7.50332C1.68018 6.54902 1.84819 5.63518 2.18421 4.79216C2.52023 3.93564 3.05228 3.14826 3.79432 2.44518C4.69039 1.56001 5.67045 1.125 6.70653 1.125C7.09855 1.125 7.49057 1.20929 7.8406 1.3779C8.20462 1.5465 8.52665 1.79943 8.77866 2.1653L12.0269 6.75976C12.2789 7.11046 12.4609 7.43419 12.5869 7.74274C12.7129 8.0378 12.7829 8.33285 12.7829 8.59924C12.7829 8.93645 12.6849 9.27365 12.4889 9.59737C12.3069 9.92109 12.0409 10.2583 11.7049 10.5955L10.6408 11.7049C10.4868 11.86 10.4168 12.0422 10.4168 12.2664C10.4168 12.3794 10.4308 12.4772 10.4588 12.5901C10.5008 12.7031 10.5428 12.7874 10.5708 12.8717C10.8228 13.3353 11.2568 13.939 11.8729 14.669C12.5029 15.4008 13.175 16.1443 13.903 16.8895C14.6591 17.6348 15.3871 18.3227 16.1292 18.9549C16.8572 19.5737 17.4593 19.9952 17.9353 20.2481C18.0054 20.2751 18.0894 20.3173 18.1873 20.3594C18.2994 20.4016 18.4113 20.4167 18.5373 20.4167C18.7754 20.4167 18.9573 20.3324 19.1114 20.1773L20.1754 19.1236C20.5255 18.7729 20.8615 18.5048 21.1835 18.3361C21.5055 18.1406 21.8276 18.0411 22.1776 18.0411C22.4435 18.0411 22.7236 18.0984 23.0316 18.2249C23.3397 18.3513 23.6616 18.5334 24.0118 18.7728L28.646 22.0741C29.0101 22.327 29.2621 22.6221 29.416 22.9728C29.5561 23.3252 29.6402 23.6759 29.6402 24.0687Z" stroke="#9FA39F" stroke-width="1.5" stroke-miterlimit="10"/>
</svg>
