<svg width="34" height="35" viewBox="0 0 34 35" fill="none" xmlns="http://www.w3.org/2000/svg">
<path d="M24.0833 8.08594C23.7291 4.30817 21.25 1.71094 17 1.71094C12.75 1.71094 10.2708 4.30818 9.91663 8.08594" stroke="#74A02F" stroke-width="2" stroke-linecap="round" stroke-linejoin="round"/>
<path d="M30.9833 13.6522C31.3189 13.3313 31.5923 13.0558 31.7963 12.8444C31.0092 11.223 29.7503 10.1658 27.6842 9.47339C25.3038 8.67571 21.895 8.38021 17 8.38021C12.105 8.38021 8.6962 8.67571 6.31581 9.47339C4.24969 10.1658 2.99083 11.223 2.20366 12.8444C2.40772 13.0558 2.68114 13.3313 3.01675 13.6522C3.82604 14.4258 4.99122 15.4573 6.41191 16.4872C9.28036 18.5667 13.0634 20.5469 17 20.5469C20.9366 20.5469 24.7196 18.5667 27.5881 16.4872C29.0088 15.4573 30.174 14.4258 30.9833 13.6522ZM1.63474 15.0979C1.58587 15.0511 1.53821 15.0053 1.49176 14.9604C1.14564 16.5031 1 18.4267 1 20.8385C1 26.3829 1.77731 29.2823 3.87089 30.9398C4.94115 31.7871 6.44815 32.3871 8.61099 32.7677C10.7744 33.1483 13.5178 33.2969 17 33.2969C20.4822 33.2969 23.2256 33.1483 25.389 32.7677C27.5518 32.3871 29.0588 31.7871 30.1291 30.9398C32.2227 29.2823 33 26.3829 33 20.8385C33 18.4267 32.8544 16.5031 32.5082 14.9604C32.4618 15.0053 32.4141 15.0511 32.3653 15.0979C31.5074 15.918 30.2725 17.0114 28.762 18.1065C25.7679 20.277 21.5634 22.5469 17 22.5469C12.4366 22.5469 8.23212 20.277 5.23804 18.1065C3.72748 17.0114 2.49264 15.918 1.63474 15.0979Z" stroke="#74A02F" stroke-width="2" stroke-linecap="round" stroke-linejoin="round"/>
</svg>
