<svg width="34" height="34" viewBox="0 0 34 34" fill="none" xmlns="http://www.w3.org/2000/svg">
<path d="M1.22914 16.8066C2.05026 20.9728 4.75469 24.4165 7.80368 27.0798C10.8444 29.7359 14.1396 31.538 15.973 32.4326C16.6284 32.7524 17.3716 32.7524 18.0271 32.4326C19.8604 31.538 23.1556 29.7359 26.1964 27.0798C29.2454 24.4166 31.9498 20.9728 32.7709 16.8066C33.4175 13.5258 32.7294 9.57728 30.2858 6.46078C27.8659 3.37446 23.64 1 17 1C10.36 1 6.13412 3.37446 3.7142 6.46078C1.27062 9.57728 0.582519 13.5258 1.22914 16.8066Z" stroke="#74A02F" stroke-width="2" stroke-linecap="round" stroke-linejoin="round"/>
<circle cx="5.66667" cy="5.66667" r="4.66667" transform="matrix(-1 0 0 1 22.6666 8.5)" stroke="#74A02F" stroke-width="2"/>
</svg>
