<svg width="40" height="42" viewBox="0 0 40 42" fill="none" xmlns="http://www.w3.org/2000/svg">
<path d="M1.77257 10.2956C0.900603 10.764 0.591654 11.8118 1.22209 12.5425C1.81944 13.235 2.50517 13.8599 3.26573 14.4028C4.50975 15.291 5.92973 15.9425 7.44446 16.3201C8.06935 16.4757 8.70555 16.5837 9.34627 16.6433C9.81699 16.6871 10.0756 17.2262 9.78492 17.5735C9.75635 17.6074 9.72798 17.6417 9.69962 17.6758C8.20954 19.4826 7.11661 21.5446 6.48308 23.7443C5.84936 25.944 5.68779 28.2382 6.00722 30.4961C6.24731 32.192 6.75524 33.8426 7.51209 35.3948C7.92793 36.2482 9.05211 36.5234 9.92429 36.055L22.8564 29.1086C23.1181 28.9681 23.4527 29.0515 23.6038 29.295L30.3637 40.1879C30.8673 40.9991 31.9825 41.2772 32.8546 40.8087C33.7266 40.3403 34.0255 39.3028 33.5221 38.4913L26.762 27.5986C26.6109 27.3551 26.7005 27.0438 26.9622 26.9033L39.0511 20.4102C39.9231 19.9418 40.2289 18.8983 39.6427 18.1366C38.5761 16.7507 37.2936 15.5163 35.8348 14.4749C33.8929 13.0884 31.6764 12.0717 29.3119 11.4821C26.9476 10.8928 24.4815 10.7424 22.0547 11.0398C22.0465 11.0408 22.0385 11.0416 22.0305 11.0426C21.5616 11.1007 21.1922 10.6206 21.3896 10.2205C21.6683 9.65534 21.896 9.0678 22.0699 8.46432C22.4757 7.05506 22.5793 5.58523 22.3746 4.13882C22.2494 3.2547 22.0105 2.38976 21.6648 1.56217C21.2997 0.688948 20.1698 0.413959 19.2978 0.882368L1.77257 10.2956Z" fill="#74A02F"/>
</svg>
