<svg width="27" height="22" viewBox="0 0 27 22" fill="none" xmlns="http://www.w3.org/2000/svg">
<g clip-path="url(#clip0_1376_6536)">
<path d="M17.6661 16.3059C18.3706 16.2985 19.0514 16.0593 19.5818 15.679C20.1123 15.2987 20.4887 14.78 20.5844 14.2137L22.2017 4.65505C22.296 4.08745 22.0939 3.57482 21.6904 3.20433C21.2868 2.83385 20.6846 2.60808 19.9801 2.61547L6.34536 2.7585C6.13853 2.76067 5.94334 2.82755 5.78637 2.93552L-4.2485 9.26447C-4.60621 9.49123 -4.70578 9.87996 -4.47132 10.1342C-4.44663 10.1599 -4.4215 10.183 -4.39269 10.2034L3.40623 16.3012C3.53454 16.401 3.70534 16.4498 3.88448 16.4492L17.6661 16.3059ZM11.852 6.75779L10.3136 7.28998L9.98383 9.24093C9.8862 9.21732 9.79165 9.17552 9.702 9.11423C9.61236 9.05293 9.54107 8.97848 9.4835 8.88961C9.42594 8.80075 9.38489 8.70005 9.35853 8.58882C9.33216 8.47759 9.3279 8.35964 9.35038 8.23623L9.59671 6.77886L8.05967 7.31233L7.11517 12.9002L8.65361 12.368L8.8815 11.0198C8.92259 11.0725 8.97425 11.1199 9.03422 11.166C9.09278 11.2107 9.15362 11.2516 9.22364 11.2859C9.29087 11.3176 9.35853 11.3467 9.42524 11.3719C9.49422 11.3932 9.55945 11.4081 9.61631 11.4153L9.3691 12.8779L10.9075 12.3457L11.0862 11.2884C11.345 11.2079 11.597 11.0911 11.8445 10.9342C12.092 10.7773 12.3176 10.5973 12.5282 10.3915C12.7374 10.1845 12.9216 9.96343 13.0816 9.72318C13.2397 9.48425 13.3599 9.24052 13.4451 8.99457L16.7074 11.8907L17.0995 9.57082L13.9692 6.99101L12.6377 7.00498L12.4419 8.1636C12.423 8.27531 12.3819 8.38465 12.3169 8.49295C12.2532 8.60254 12.1746 8.70449 12.0803 8.79495C11.9906 8.88665 11.8865 8.96813 11.7768 9.03541C11.6652 9.104 11.5538 9.15185 11.4391 9.18158L11.852 6.75779ZM6.96682 17.7095C6.54346 17.714 6.15252 17.9943 6.09499 18.3346C6.03747 18.6749 6.33489 18.9479 6.75825 18.9435L20.5417 18.7989C21.2462 18.7915 21.9288 18.551 22.4574 18.172C22.9879 17.7917 23.3643 17.273 23.46 16.7067L25.074 7.1481C25.1316 6.80779 24.8341 6.53473 24.4108 6.53917C23.9874 6.54361 23.5965 6.82389 23.539 7.1642L21.9235 16.7215C21.8844 16.9527 21.733 17.1618 21.52 17.3144C21.3071 17.4671 21.0328 17.5633 20.7452 17.5663L6.96682 17.7095ZM0.913297 10.9335C1.10284 11.1195 1.32246 11.2611 1.57541 11.3583C1.83159 11.4555 2.11785 11.5082 2.43604 11.5153L2.43927 11.5152C2.75422 11.5223 3.05909 11.4841 3.35753 11.398C3.65921 11.3118 3.94389 11.1831 4.21202 11.0091C4.23544 10.9946 4.25747 10.9788 4.2781 10.9617C4.51627 10.7933 4.71086 10.6058 4.85867 10.3994L4.8605 10.3981L4.8619 10.3994C5.02203 10.1773 5.13029 9.93755 5.18529 9.67895C5.18793 9.66337 5.19056 9.64778 5.19136 9.63351C5.23543 9.39188 5.2242 9.1625 5.16185 8.94921C5.0948 8.7256 4.97253 8.52332 4.79321 8.34368L4.79504 8.34236C4.61424 8.15236 4.39549 8.00555 4.13652 7.90583C3.88078 7.80609 3.59173 7.75077 3.26708 7.74381L3.26384 7.74384C2.94243 7.73684 2.63249 7.77639 2.33405 7.86251C2.037 7.9499 1.75511 8.08122 1.49073 8.26163C1.22128 8.44339 1.00649 8.64532 0.84313 8.86745C0.679329 9.09219 0.568792 9.33581 0.513352 9.59701C0.460624 9.85169 0.466428 10.0941 0.533039 10.3203C0.599649 10.5465 0.729781 10.75 0.913297 10.9335ZM2.26812 10.4188C2.15138 10.3746 2.05108 10.3096 1.96539 10.2249C1.8783 10.1389 1.81978 10.0462 1.78982 9.94666C1.75987 9.84714 1.75796 9.73436 1.78366 9.61091C1.80893 9.49006 1.85829 9.37933 1.93132 9.28132C2.00661 9.1794 2.10645 9.08499 2.23177 9.00199C2.35387 8.91903 2.47848 8.85937 2.6125 8.82037C2.74468 8.78267 2.88812 8.76431 3.03913 8.76792C3.19014 8.77152 3.32149 8.79607 3.43639 8.84154C3.54527 8.88449 3.64233 8.9496 3.72296 9.03562L3.7248 9.03431L3.73457 9.04328C3.82306 9.13052 3.88158 9.22326 3.91153 9.32278C3.93958 9.41455 3.94463 9.51822 3.92392 9.63124C3.92077 9.64035 3.91945 9.64815 3.9163 9.65726C3.89059 9.7807 3.84123 9.89143 3.76777 9.99204C3.70436 10.0809 3.61965 10.1622 3.51687 10.2358C3.50952 10.2411 3.50079 10.2451 3.49344 10.2503C3.35754 10.3386 3.2228 10.401 3.09062 10.4387C2.9566 10.4777 2.815 10.4947 2.66582 10.4898L2.65935 10.4899C2.5148 10.4862 2.38163 10.463 2.26812 10.4188ZM18.6477 14.8214C18.4348 14.974 18.1604 15.0702 17.8728 15.0733L4.37701 15.2148L-2.65672 9.71454L6.41978 3.9882L19.7715 3.84942C20.0592 3.84641 20.3019 3.93721 20.4625 4.08464C20.6244 4.23334 20.7057 4.43995 20.6666 4.67115L19.0511 14.2285C19.0121 14.4597 18.8606 14.6687 18.6477 14.8214Z" fill="#74A02F"/>
</g>
<defs>
<clipPath id="clip0_1376_6536">
<rect width="25.5654" height="20.7736" fill="white" transform="matrix(-0.999394 -0.0347963 -0.0347963 0.999394 26.2729 0.889648)"/>
</clipPath>
</defs>
</svg>
