<svg width="32" height="32" viewBox="0 0 32 32" fill="none" xmlns="http://www.w3.org/2000/svg">
<path d="M31 31H1L6.09997 20.7034H25.9L31 31Z" stroke="#74A02F" stroke-width="1.5" stroke-miterlimit="10" stroke-linecap="round" stroke-linejoin="round"/>
<path d="M24.5167 9.52215C24.5167 3.78196 18.8406 -0.632395 12.7955 1.58899C10.7141 2.3538 9.01662 3.99273 8.18294 6.04795C7.0332 8.88284 7.38294 11.6228 8.62974 13.7786L8.62448 13.7817L14.8995 24.6538C15.3887 25.5008 16.611 25.5008 17.1002 24.6538L23.3757 13.7817L23.37 13.7782C24.0949 12.5249 24.5167 11.0745 24.5167 9.52215Z" stroke="#74A02F" stroke-width="1.5" stroke-miterlimit="10" stroke-linecap="round" stroke-linejoin="round"/>
<path d="M20.1552 9.52333C20.1552 11.8191 18.2946 13.6797 16 13.6797C13.7053 13.6797 11.8447 11.8191 11.8447 9.52333C11.8447 7.22805 13.7053 5.36698 16 5.36698" stroke="#74A02F" stroke-width="1.5" stroke-miterlimit="10" stroke-linecap="round" stroke-linejoin="round"/>
</svg>
