<svg width="24" height="30" viewBox="0 0 24 30" fill="none" xmlns="http://www.w3.org/2000/svg">
<g clip-path="url(#clip0_4408_19543)">
<path fill-rule="evenodd" clip-rule="evenodd" d="M5.35889 4.47998H13.8525C14.4556 4.47998 14.4238 4.72412 14.3701 5.34668L14.0283 9.72168C13.9697 10.4175 14.0186 10.249 13.2813 10.3564L7.22656 10.8862L7.58545 11.9287C10.5298 11.9287 11.2183 11.9287 14.1602 11.9287C14.2603 12.2998 14.3945 12.9004 14.4922 13.313H13.2788L13.1616 12.8906C10.7104 12.8906 10.5078 12.8906 8.0542 12.8906C6.71387 12.8687 6.84814 13.23 6.52832 12.0728L4.22607 4.21143H3.51562V3.23242H5.05859C5.14893 3.57178 5.27588 4.13818 5.35889 4.47998ZM16.6431 0.161133C16.5356 0.0634766 16.3843 0 16.2354 0C16.2036 0 16.1719 0 16.1377 0.00976562H1.35254C0.98877 0.00976562 0.644531 0.161133 0.397949 0.407715C0.151367 0.654297 0 0.986328 0 1.3623V28.6475C0 29.0234 0.151367 29.3555 0.397949 29.6021C0.644531 29.8486 0.976562 30 1.35254 30H22.5342C22.9102 30 23.2422 29.8486 23.4888 29.6021C23.7354 29.3555 23.8867 29.0234 23.8867 28.6475V7.88574C23.8965 7.83203 23.9087 7.78809 23.9087 7.73438C23.9087 7.55127 23.8232 7.39014 23.7036 7.27295L16.7163 0.202637C16.6943 0.180664 16.6846 0.170898 16.6626 0.158691L16.6431 0.161133ZM16.1621 1.22314V5.97412C16.1621 6.47949 16.3672 6.94092 16.6992 7.27295C17.0313 7.60498 17.4927 7.81006 17.998 7.81006H22.6514V28.6499C22.6514 28.6816 22.6416 28.7256 22.6074 28.7476C22.5854 28.7695 22.5537 28.7915 22.5098 28.7915H1.34033C1.30859 28.7915 1.26465 28.7817 1.24268 28.7476C1.2207 28.7256 1.19873 28.6841 1.19873 28.6499V1.3623C1.19873 1.31836 1.2085 1.28662 1.24268 1.26465C1.26465 1.24268 1.29639 1.2207 1.34033 1.2207H16.1621V1.22314ZM17.373 5.97412V2.18994L21.7163 6.59668H17.9956C17.8247 6.59668 17.6733 6.521 17.5562 6.41357C17.4487 6.30615 17.373 6.14502 17.373 5.97412ZM5.00977 17.0142C4.67773 17.0142 4.39941 17.2827 4.39941 17.6245C4.39941 17.9565 4.66797 18.2373 5.00977 18.2373H18.7134C19.0454 18.2373 19.3262 17.9688 19.3262 17.6245C19.3262 17.2925 19.0576 17.0142 18.7134 17.0142H5.00977ZM5.23926 24.2627C4.90723 24.2627 4.62647 24.5312 4.62647 24.8755C4.62647 25.2075 4.89502 25.4858 5.23926 25.4858H18.8525C19.1846 25.4858 19.4653 25.2173 19.4653 24.873C19.4653 24.541 19.1968 24.2627 18.8525 24.2627H5.23926ZM5.00977 20.7666C4.67773 20.7666 4.39941 21.0352 4.39941 21.377C4.39941 21.709 4.66797 21.9873 5.00977 21.9873H18.8525C19.1846 21.9873 19.4629 21.7187 19.4629 21.377C19.4629 21.0449 19.1943 20.7666 18.8525 20.7666H5.00977ZM9.0332 5.5835H10.7886V7.36572H12.3682L9.91211 9.75342L7.45361 7.36328H9.0332V5.5835ZM8.06396 13.479C8.58154 13.479 9.00146 13.8989 9.00146 14.4165C9.00146 14.9341 8.58154 15.354 8.06396 15.354C7.54639 15.354 7.12646 14.9341 7.12646 14.4165C7.12646 13.8989 7.54639 13.479 8.06396 13.479ZM11.9287 13.479C12.4463 13.479 12.8662 13.8989 12.8662 14.4165C12.8662 14.9341 12.4463 15.354 11.9287 15.354C11.4111 15.354 10.9912 14.9341 10.9912 14.4165C10.9912 13.8989 11.4111 13.479 11.9287 13.479Z" fill="#74A02F"/>
</g>
<defs>
<clipPath id="clip0_4408_19543">
<rect width="23.9062" height="30" fill="white"/>
</clipPath>
</defs>
</svg>
