<svg width="32" height="37" viewBox="0 0 32 37" fill="none" xmlns="http://www.w3.org/2000/svg">
<path d="M1 11.2097L1.56566 18.9228C1.6458 19.8406 3.28209 20.6402 4.27952 20.7875C4.32446 20.794 4.36801 20.7995 4.41017 20.8032L5.1704 31.0782C5.19958 31.4831 5.54426 31.8125 5.93805 31.8125H9.24397C9.63729 31.8125 9.98197 31.4831 10.0116 31.0782L10.7719 20.8032C10.814 20.7991 10.8576 20.794 10.903 20.7875C11.8995 20.6406 13.5353 19.8405 13.6164 18.927L14.1806 11.3441C14.1839 11.2811 14.1825 11.238 14.1816 11.213C14.1816 9.70132 12.9919 8.44538 11.5284 8.40925H3.66105C2.19061 8.44538 1 9.70131 1 11.2097Z" stroke="#74A02F" stroke-width="1.5" stroke-miterlimit="10" stroke-linecap="round" stroke-linejoin="round"/>
<path d="M7.59068 6.33594C8.97356 6.33594 10.0989 5.21064 10.0989 3.82776C10.0989 2.44442 8.97356 1.31913 7.59068 1.31913C6.20735 1.31913 5.08252 2.44442 5.08252 3.82776C5.08252 5.21064 6.20735 6.33594 7.59068 6.33594Z" stroke="#74A02F" stroke-width="1.5" stroke-miterlimit="10" stroke-linecap="round" stroke-linejoin="round"/>
<path d="M17.8176 11.2097L18.3833 18.9228C18.4634 19.8406 20.0997 20.6402 21.0971 20.7875C21.1421 20.794 21.1856 20.7995 21.2278 20.8032L21.988 31.0782C22.0172 31.4831 22.3619 31.8125 22.7557 31.8125H26.0616C26.4549 31.8125 26.7996 31.4831 26.8292 31.0782L27.5895 20.8032C27.6316 20.7991 27.6747 20.794 27.7206 20.7875C28.7166 20.6406 30.3529 19.8405 30.4335 18.927L30.9983 11.3441C31.0015 11.2811 31.0001 11.238 30.9992 11.213C30.9992 9.70132 29.809 8.44538 28.346 8.40925H20.4787C19.0082 8.44538 17.8176 9.70131 17.8176 11.2097Z" stroke="#74A02F" stroke-width="1.5" stroke-miterlimit="10" stroke-linecap="round" stroke-linejoin="round"/>
<path d="M24.4086 6.33594C25.7914 6.33594 26.9167 5.21064 26.9167 3.82776C26.9167 2.44442 25.7914 1.31913 24.4086 1.31913C23.0252 1.31913 21.9004 2.44442 21.9004 3.82776C21.9004 5.21064 23.0252 6.33594 24.4086 6.33594Z" stroke="#74A02F" stroke-width="1.5" stroke-miterlimit="10" stroke-linecap="round" stroke-linejoin="round"/>
<path d="M14.3486 36.6875C13.586 36.6875 12.9444 36.0825 12.8879 35.3093L12.1675 25.568C11.0329 25.2752 9.3943 24.4288 9.2845 23.1631L8.71746 15.4408C8.71653 15.4241 8.71606 15.407 8.71606 15.3898C8.71606 13.508 10.2134 11.9398 12.0544 11.8944H19.9394C21.7929 11.9403 23.2875 13.5094 23.2875 15.3935C23.2884 15.4037 23.2902 15.4667 23.2856 15.5594L22.7199 23.1589C22.6069 24.4306 20.9683 25.2766 19.8361 25.5685L19.1157 35.3102C19.0582 36.0825 18.4166 36.6875 17.6545 36.6875H14.3486Z" fill="#74A02F"/>
<path d="M16.0015 4.10153C13.8524 4.10153 12.1035 5.85039 12.1035 7.99998C12.1035 10.1496 13.8524 11.8984 16.0015 11.8984C18.1511 11.8984 19.9 10.1496 19.9 7.99998C19.9 5.85039 18.1511 4.10153 16.0015 4.10153ZM16.0015 5.49136C17.3844 5.49136 18.5101 6.61711 18.5101 7.99998C18.5101 9.38332 17.3844 10.5086 16.0015 10.5086C14.6186 10.5086 13.4933 9.38332 13.4933 7.99998C13.4933 6.61711 14.6186 5.49136 16.0015 5.49136Z" fill="#74A02F"/>
<path d="M9.41016 15.389L9.97628 23.102C10.056 24.0198 11.6923 24.8194 12.6901 24.9672C12.7351 24.9736 12.7782 24.9792 12.8203 24.9829L13.5806 35.2579C13.6102 35.6628 13.9544 35.9922 14.3482 35.9922H17.6541C18.0475 35.9922 18.3921 35.6628 18.4222 35.2579L19.182 24.9825C19.2242 24.9787 19.2677 24.9736 19.3131 24.9672C20.3096 24.8198 21.9455 24.0202 22.0265 23.1067L22.5913 15.5238C22.5945 15.4603 22.5931 15.4172 22.5922 15.3922C22.5922 13.881 21.402 12.6246 19.939 12.5885H12.0712C10.6008 12.6246 9.41016 13.881 9.41016 15.389Z" stroke="#74A02F" stroke-width="1.5" stroke-miterlimit="10" stroke-linecap="round" stroke-linejoin="round"/>
<path d="M16.0013 10.5156C17.3842 10.5156 18.51 9.39033 18.51 8.007C18.51 6.62412 17.3842 5.49837 16.0013 5.49837C14.6185 5.49837 13.4932 6.62412 13.4932 8.007C13.4932 9.39033 14.6185 10.5156 16.0013 10.5156Z" stroke="#74A02F" stroke-width="1.5" stroke-miterlimit="10" stroke-linecap="round" stroke-linejoin="round"/>
</svg>
