<svg width="39" height="38" viewBox="0 0 39 38" fill="none" xmlns="http://www.w3.org/2000/svg">
<g clip-path="url(#clip0_4412_20997)">
<path fill-rule="evenodd" clip-rule="evenodd" d="M0.503552 24.1015L24.7353 0.491517L24.7734 0.466283C25.4498 -0.166049 26.53 -0.15269 27.1934 0.490774L30.3759 3.59232C30.4802 3.69325 30.5412 3.82833 30.5534 3.96711C30.5655 4.10367 30.532 4.2484 30.452 4.37011C30.2678 4.64402 30.1333 4.9468 30.0544 5.26517C29.5357 7.36033 31.472 9.22392 33.5858 8.72964C33.8996 8.6569 34.2081 8.52999 34.4884 8.3541C34.6093 8.26649 34.7585 8.22409 34.9089 8.23461C35.0566 8.245 35.2021 8.30586 35.3133 8.41421L38.4966 11.5158C39.1676 12.1696 39.1676 13.2458 38.4966 13.8996L14.2648 37.5096C13.5929 38.1642 12.4892 38.1642 11.8174 37.5096L8.61129 34.3858C8.51303 34.2908 8.45209 34.1602 8.43685 34.0259C8.42238 33.8952 8.44828 33.7565 8.5214 33.6355C8.6966 33.3631 8.81924 33.067 8.88627 32.7619C9.33416 30.7573 7.51213 28.9205 5.41131 29.3472C5.10053 29.411 4.79584 29.5253 4.51476 29.6864C4.38908 29.7636 4.23902 29.7984 4.09658 29.7858C3.9502 29.7735 3.81307 29.7109 3.70963 29.6092L0.503552 26.4854C-0.164475 25.8352 -0.170569 24.7583 0.503552 24.1015ZM33.4205 16.8193C33.4707 16.8683 33.5233 16.9069 33.5774 16.9351L17.3931 32.7033L17.3665 32.6632C17.3467 32.6395 17.3284 32.6172 17.3055 32.5949L16.4037 31.7162C15.8598 31.1863 14.977 31.8929 15.4409 32.5259C15.4614 32.5504 15.4782 32.5719 15.5018 32.5949L16.4037 33.4729C16.4387 33.5071 16.476 33.5368 16.5126 33.5605L13.3629 36.6301C13.1862 36.8023 12.8731 36.8083 12.6964 36.6301L9.8247 33.8329C9.97629 33.5041 10.0829 33.159 10.1423 32.8065C10.6078 30.0582 8.17254 27.6357 5.30695 28.0952C4.94666 28.153 4.5917 28.2577 4.25426 28.4046L1.38181 25.6066C1.215 25.4434 1.18529 25.0975 1.394 24.9684L4.5597 21.8839C4.57722 21.9173 4.59703 21.9514 4.62217 21.9848C4.64197 22.0093 4.65949 22.0309 4.68387 22.0531L5.58498 22.9319C6.12885 23.4625 7.01244 22.756 6.54779 22.1221C6.52799 22.0984 6.51047 22.0769 6.48685 22.0531L5.58498 21.1751C5.53499 21.1254 5.47712 21.0838 5.41359 21.0519L21.6024 5.27853L21.639 5.33123C21.6595 5.35572 21.677 5.37724 21.6999 5.40025L22.6018 6.27824C23.1456 6.80815 24.0292 6.10234 23.5638 5.46853C23.5452 5.44435 23.5249 5.42153 23.5029 5.40025L22.6018 4.52152C22.5614 4.48292 22.5203 4.45175 22.4784 4.42503L25.6258 1.35837C25.8048 1.18396 26.1125 1.18396 26.2915 1.35837L29.1373 4.13187C28.9713 4.45962 28.8511 4.80759 28.7801 5.16646C28.2164 8.02606 30.791 10.4893 33.6871 9.9468C34.0519 9.87852 34.4107 9.76126 34.7489 9.59872L37.5954 12.3715C37.7737 12.5451 37.7737 12.8465 37.5947 13.0209L34.4381 16.0964C34.4221 16.0675 34.4038 16.0393 34.3833 16.0096C34.3635 15.9859 34.346 15.9636 34.3216 15.9413L33.4205 15.0626C32.8766 14.5327 31.9938 15.2385 32.4584 15.8723C32.4775 15.8968 32.4957 15.9176 32.5194 15.9413L33.4205 16.8193ZM22.5926 10.0418L28.8311 16.1224C29.6126 16.9255 29.6004 18.2094 28.7953 18.9939L19.4993 28.0514C18.682 28.8477 17.3307 28.8477 16.5134 28.0514L10.3107 22.0079C9.49336 21.2115 9.49488 19.8993 10.3107 19.1015L19.6075 10.0411C20.4248 9.24545 21.7753 9.24619 22.5926 10.0418ZM27.927 16.9314L21.7243 10.8886C21.3807 10.5539 20.8201 10.5532 20.4758 10.8879L11.1798 19.9454C10.8401 20.2756 10.8408 20.8315 11.1798 21.1618L17.3825 27.2053C17.7214 27.5356 18.2912 27.5356 18.6302 27.2053L27.927 18.1471C28.2583 17.825 28.2667 17.2876 27.9498 16.9529L27.927 16.9314ZM13.6988 30.8382C14.2427 31.3681 15.1263 30.6616 14.6624 30.0285C14.6418 30.0033 14.6243 29.9825 14.6014 29.9595L13.6988 29.0808C13.1549 28.5508 12.2713 29.2567 12.7368 29.8912C12.7558 29.915 12.7741 29.9365 12.7977 29.9595L13.6988 30.8382ZM10.9947 28.202C11.5386 28.7334 12.4222 28.0269 11.9568 27.3931C11.9377 27.3686 11.9202 27.347 11.8958 27.324L10.9947 26.446C10.4508 25.9154 9.56724 26.6219 10.0311 27.2558C10.0517 27.2795 10.0692 27.301 10.0928 27.324L10.9947 28.202ZM8.28984 25.5673C8.83371 26.0972 9.71654 25.3914 9.25265 24.7576C9.23209 24.7331 9.21457 24.7116 9.19172 24.6893L8.28984 23.8098C7.74521 23.2799 6.86238 23.9865 7.32703 24.6203C7.3476 24.6448 7.36511 24.6656 7.38797 24.6893L8.28984 25.5673ZM30.7164 14.1839C31.2602 14.7145 32.1431 14.0087 31.6784 13.3749C31.6598 13.3508 31.6394 13.328 31.6175 13.3066L30.7164 12.4271C30.171 11.8972 29.2889 12.6038 29.7528 13.2369C29.7734 13.2606 29.7909 13.2829 29.8145 13.3059L30.7164 14.1839ZM28.0107 11.5492C28.5554 12.0791 29.4382 11.3725 28.9736 10.7394C28.9537 10.7149 28.9362 10.6942 28.9126 10.6704L28.0107 9.79243C27.4669 9.26252 26.584 9.96758 27.0487 10.6021C27.0693 10.6259 27.086 10.6474 27.1096 10.6704L28.0107 11.5492ZM25.3066 8.9137C25.8505 9.44435 26.7333 8.7378 26.2695 8.10399C26.2489 8.07949 26.2314 8.05797 26.2085 8.0357L25.3066 7.15697C24.7628 6.62632 23.8792 7.33287 24.3431 7.96594C24.3636 7.99117 24.3811 8.01196 24.4055 8.03496L25.3066 8.9137Z" fill="#74A02F"/>
</g>
<defs>
<clipPath id="clip0_4412_20997">
<rect width="39" height="38" fill="white"/>
</clipPath>
</defs>
</svg>
