<svg width="32" height="34" viewBox="0 0 32 34" fill="none" xmlns="http://www.w3.org/2000/svg">
<path d="M30.9997 32.2734V8.09456C30.9997 6.7872 29.9403 5.72782 28.633 5.72782H8.10083" stroke="#74A02F" stroke-width="1.5" stroke-miterlimit="10" stroke-linecap="round" stroke-linejoin="round"/>
<path d="M1 1.00647H21.5326V4.22656" stroke="#74A02F" stroke-width="1.5" stroke-miterlimit="10" stroke-linejoin="round"/>
<path d="M1 1.00344V20.623C1 21.9299 2.05985 22.9897 3.36721 22.9897C4.67411 22.9897 5.73394 21.9299 5.73394 20.623V8.09456C5.73394 6.7872 6.79378 5.72782 8.10114 5.72782C9.40804 5.72782 10.4679 6.7872 10.4679 8.09456V32.2734" stroke="#74A02F" stroke-width="1.5" stroke-miterlimit="10" stroke-linecap="round" stroke-linejoin="round"/>
<path d="M15.0642 15.0078H26.4038" stroke="#74A02F" stroke-width="1.5" stroke-miterlimit="10" stroke-linecap="round" stroke-linejoin="round"/>
<path d="M15.0642 11.0547H26.4038" stroke="#74A02F" stroke-width="1.5" stroke-miterlimit="10" stroke-linecap="round" stroke-linejoin="round"/>
<path d="M3.36694 22.9922H8.96334" stroke="#74A02F" stroke-width="1.5" stroke-miterlimit="10" stroke-linejoin="round"/>
<path d="M25.121 19.8816C23.9326 18.5984 21.9324 18.6471 20.8032 19.9235C19.6746 18.6471 17.6739 18.5984 16.4859 19.8816C15.453 20.997 15.5514 22.7598 16.5584 23.8985L18.751 26.3778L20.2585 28.0827C20.5479 28.4099 21.059 28.4099 21.3484 28.0827L22.8559 26.3778L25.0485 23.8985C26.0555 22.7598 26.1539 20.997 25.121 19.8816Z" stroke="#74A02F" stroke-width="1.5" stroke-miterlimit="10" stroke-linecap="round" stroke-linejoin="round"/>
<path d="M8.5 32.4141H25" stroke="#74A02F" stroke-width="1.5"/>
</svg>
