<svg width="30" height="34" viewBox="0 0 30 34" fill="none" xmlns="http://www.w3.org/2000/svg">
<g clip-path="url(#clip0_4405_17850)">
<path d="M14.0942 1.3473C14.0942 0.987206 14.4999 0.695312 14.9999 0.695312C15.4998 0.695312 15.9055 0.987206 15.9055 1.3473V13.1231C15.9055 13.4832 15.5001 13.7751 14.9999 13.7751C14.4997 13.7751 14.0942 13.4832 14.0942 13.1231V1.3473ZM19.5343 5.91251C19.0651 5.74056 18.8245 5.22125 18.9967 4.7521C19.1684 4.28321 19.6877 4.04253 20.1568 4.21448C23.0657 5.2799 25.5539 7.22337 27.3013 9.7249C29.002 12.1593 30 15.117 30 18.3026C30 22.4438 28.3206 26.1938 25.6059 28.9087C22.8913 31.623 19.1413 33.3027 14.9999 33.3027C10.8584 33.3027 7.1084 31.6233 4.39379 28.9087C1.67945 26.1938 0 22.4438 0 18.3026C0 15.117 0.997744 12.1593 2.69842 9.7249C4.4458 7.22337 6.93406 5.2799 9.84291 4.21448C10.3118 4.0428 10.8314 4.28348 11.0031 4.7521C11.175 5.22099 10.9343 5.74056 10.4654 5.91251C7.90235 6.85134 5.71209 8.56025 4.17699 10.7577C2.68595 12.8922 1.81107 15.4932 1.81107 18.3026C1.81107 21.9441 3.28751 25.2412 5.67441 27.628C8.0613 30.0149 11.3584 31.4917 14.9999 31.4917C18.6414 31.4917 21.9384 30.0152 24.3253 27.628C26.7122 25.2414 28.1887 21.9441 28.1887 18.3026C28.1887 15.4932 27.3138 12.8922 25.8227 10.7577C24.2874 8.55998 22.0974 6.85108 19.5343 5.91251Z" fill="#74A02F"/>
</g>
<defs>
<clipPath id="clip0_4405_17850">
<rect width="30" height="32.6071" fill="white" transform="translate(0 0.695312)"/>
</clipPath>
</defs>
</svg>
