<svg width="55" height="55" viewBox="0 0 55 55" fill="none" xmlns="http://www.w3.org/2000/svg">
<path d="M27.5 0C12.3464 0 0 12.3475 0 27.5C0 42.6525 12.3464 55 27.5 55C42.6536 55 55 42.6525 55 27.5C55 12.3475 42.6536 0 27.5 0ZM25.4364 16.5C25.4364 15.3725 26.3736 14.4375 27.5 14.4375C28.6264 14.4375 29.5636 15.3725 29.5636 16.5V30.25C29.5636 31.3775 28.6264 32.3125 27.5 32.3125C26.3736 32.3125 25.4364 31.3775 25.4364 30.25V16.5ZM30.03 39.545C29.8914 39.9025 29.7 40.1775 29.4514 40.4525C29.1764 40.7 28.875 40.8925 28.545 41.03C28.215 41.1675 27.8564 41.25 27.5 41.25C27.1436 41.25 26.785 41.1675 26.455 41.03C26.125 40.8925 25.8236 40.7 25.5486 40.4525C25.3 40.1775 25.1086 39.9025 24.97 39.545C24.8292 39.2146 24.7544 38.8595 24.75 38.5C24.75 38.1425 24.8336 37.785 24.97 37.455C25.1086 37.125 25.3 36.8225 25.5486 36.5475C25.8236 36.3 26.125 36.1075 26.455 35.97C27.1238 35.695 27.8762 35.695 28.545 35.97C28.875 36.1075 29.1764 36.3 29.4514 36.5475C29.7 36.8225 29.8914 37.125 30.03 37.455C30.1664 37.785 30.25 38.1425 30.25 38.5C30.25 38.8575 30.1664 39.215 30.03 39.545Z" fill="#74A02F"/>
</svg>
