<svg width="19" height="20" viewBox="0 0 19 20" fill="none" xmlns="http://www.w3.org/2000/svg">
<path d="M3.5625 6.17692C4.54955 6.17692 5.44148 6.60588 6.08784 7.29753C6.23307 7.45312 6.36844 7.62468 6.48862 7.80693L12.1256 5.29758C11.9452 4.84181 11.8499 4.34316 11.8499 3.82305C11.8499 2.76675 12.2508 1.81233 12.8972 1.12064C13.5436 0.428951 14.4354 0 15.4224 0C16.4096 0 17.3014 0.428951 17.9478 1.12064C18.5941 1.81233 18.995 2.76675 18.995 3.82305C18.995 4.87935 18.5941 5.83379 17.9478 6.52544C17.3014 7.2172 16.4096 7.64605 15.4224 7.64605C14.4354 7.64605 13.5436 7.2172 12.8972 6.52544C12.7869 6.40754 12.6817 6.27884 12.5866 6.14474L6.91457 8.67025C7.05981 9.08313 7.14008 9.53346 7.14008 10C7.14008 10.2896 7.10992 10.5683 7.05482 10.8418L12.7218 13.6836C12.7769 13.6139 12.837 13.5442 12.9022 13.4746C13.5485 12.7828 14.4404 12.3538 15.4275 12.3538C16.4146 12.3538 17.3064 12.7828 17.9527 13.4746C18.5991 14.1662 19 15.1207 19 16.1769C19 17.2332 18.5991 18.1876 17.9527 18.8794C17.3064 19.571 16.4146 20 15.4275 20C14.4404 20 13.5485 19.571 12.9022 18.8794C12.2558 18.1876 11.8549 17.2332 11.8549 16.1769C11.8549 15.5764 11.9852 15.0026 12.2207 14.4986L6.74915 11.7533C6.57887 12.1072 6.35835 12.429 6.09781 12.7024C5.45145 13.3941 4.55964 13.8231 3.57247 13.8231C2.58542 13.8231 1.69361 13.3941 1.04726 12.7024C0.400901 12.0107 0 11.0563 0 10C0 8.94374 0.400901 7.98929 1.04726 7.29753C1.69361 6.60588 2.58542 6.17692 3.57247 6.17692H3.5625ZM17.3014 1.80697C16.8205 1.29222 16.154 0.970514 15.4174 0.970514C14.6809 0.970514 14.0145 1.29222 13.5335 1.80697C13.0525 2.32172 12.7518 3.03485 12.7518 3.82305C12.7518 4.61126 13.0525 5.32439 13.5335 5.83908C14.0145 6.35388 14.6809 6.67563 15.4174 6.67563C16.154 6.67563 16.8205 6.35388 17.3014 5.83908C17.7825 5.32439 18.083 4.61126 18.083 3.82305C18.083 3.03485 17.7825 2.32172 17.3014 1.80697ZM17.3014 14.1555C16.8205 13.6407 16.154 13.319 15.4174 13.319C14.6809 13.319 14.0145 13.6407 13.5335 14.1555C13.0525 14.6702 12.7518 15.3833 12.7518 16.1715C12.7518 16.9598 13.0525 17.6729 13.5335 18.1876C14.0145 18.7024 14.6809 19.0241 15.4174 19.0241C16.154 19.0241 16.8205 18.7024 17.3014 18.1876C17.7825 17.6729 18.083 16.9598 18.083 16.1715C18.083 15.3833 17.7825 14.6702 17.3014 14.1555ZM5.44647 7.97849C4.96541 7.4638 4.29911 7.14205 3.5625 7.14205C2.82589 7.14205 2.15959 7.4638 1.67853 7.97849C1.19748 8.49329 0.896917 9.20643 0.896917 9.9946C0.896917 10.7828 1.19748 11.4959 1.67853 12.0107C2.15959 12.5255 2.82589 12.8471 3.5625 12.8471C4.29911 12.8471 4.96541 12.5255 5.44647 12.0107C5.92752 11.4959 6.22808 10.7828 6.22808 9.9946C6.22808 9.20643 5.92752 8.49329 5.44647 7.97849Z" fill="white"/>
</svg>
