<svg width="27" height="26" viewBox="0 0 27 26" fill="none" xmlns="http://www.w3.org/2000/svg">
<path fill-rule="evenodd" clip-rule="evenodd" d="M13.5345 0C12.972 0 12.5505 0.295574 12.312 0.503891C12.0495 0.733011 11.8185 1.02295 11.619 1.31274C11.2155 1.89811 10.821 2.66261 10.4625 3.44113C9.73951 5.01001 9.0885 6.81379 8.748 7.79845C8.742 7.8129 8.72701 7.82431 8.71051 7.82489C7.64251 7.8597 5.68502 7.95187 3.97952 8.19284C3.13652 8.31173 2.28902 8.47584 1.62602 8.71349C1.29902 8.8305 0.943486 8.991 0.650986 9.22373C0.353986 9.4595 0 9.87238 0 10.468C0 10.8799 0.16199 11.2445 0.30899 11.5047C0.46499 11.7835 0.672012 12.06 0.894012 12.3209C1.33951 12.8441 1.92751 13.4041 2.53651 13.9367C3.75751 15.0069 5.17348 16.0638 5.97748 16.6482C5.99098 16.6574 5.99698 16.6727 5.99098 16.6893C5.68198 17.6671 5.14499 19.456 4.80299 21.1151C4.63349 21.9393 4.50302 22.7759 4.48352 23.4825C4.47302 23.8339 4.48949 24.1977 4.56299 24.5314C4.63049 24.842 4.78051 25.2782 5.16151 25.6035C5.59051 25.9687 6.1065 26.0171 6.465 25.9957C6.831 25.974 7.19702 25.872 7.52252 25.7534C8.18102 25.5141 8.92499 25.1133 9.63899 24.6806C11.079 23.8065 12.6045 22.672 13.4715 22.0049C13.488 21.9928 13.5105 21.9925 13.527 22.0052C14.394 22.6727 15.921 23.8081 17.373 24.6827C18.0915 25.1159 18.843 25.5167 19.5135 25.7559C19.8465 25.8746 20.2155 25.9746 20.5845 25.9959C20.946 26.0168 21.4485 25.9678 21.8775 25.6291C22.278 25.3117 22.4445 24.8758 22.5225 24.5525C22.6035 24.212 22.623 23.8423 22.614 23.4881C22.596 22.7763 22.458 21.9366 22.2795 21.1127C21.9195 19.4532 21.351 17.6637 21.021 16.682C21.015 16.6646 21.021 16.6483 21.0345 16.6388C21.8445 16.0512 23.256 14.9958 24.474 13.9282C25.08 13.3969 25.6665 12.8385 26.109 12.3167C26.3295 12.0564 26.5365 11.7807 26.6925 11.5024C26.8395 11.2426 27 10.8789 27 10.468C27 9.8731 26.6475 9.46022 26.3505 9.2246C26.058 8.99172 25.7025 8.83122 25.3755 8.71421C24.714 8.47671 23.8665 8.3126 23.025 8.19356C21.3225 7.95259 19.3665 7.85999 18.297 7.82503C18.279 7.82445 18.264 7.81319 18.2595 7.7986C17.9265 6.81104 17.2905 5.00871 16.5825 3.442C16.2315 2.66478 15.843 1.90086 15.4455 1.31592C15.249 1.02613 15.0195 0.73561 14.7585 0.505768C14.52 0.29615 14.1 0 13.5345 0Z" fill="url(#paint0_linear_4405_16830)"/>
<defs>
<linearGradient id="paint0_linear_4405_16830" x1="13.5" y1="0" x2="13.5" y2="26" gradientUnits="userSpaceOnUse">
<stop stop-color="#9CFF00"/>
<stop offset="1" stop-color="#AAD500"/>
</linearGradient>
</defs>
</svg>
