<svg width="44" height="44" viewBox="0 0 44 44" fill="none" xmlns="http://www.w3.org/2000/svg">
<circle cx="22" cy="22" r="21.5" fill="white" stroke="#74A02F"/>
<path d="M35 32.9717H10.2656" stroke="#74A02F" stroke-width="1.5" stroke-miterlimit="10" stroke-linecap="round" stroke-linejoin="round"/>
<path d="M33.1287 15.5262H11.6116" stroke="#74A02F" stroke-width="1.5" stroke-miterlimit="10" stroke-linecap="round" stroke-linejoin="round"/>
<path d="M16.1122 9.61803L15.2664 13.9082" stroke="#74A02F" stroke-width="1.5" stroke-miterlimit="10" stroke-linecap="round" stroke-linejoin="round"/>
<path d="M20.2826 9.61803L20.0002 13.9082" stroke="#74A02F" stroke-width="1.5" stroke-miterlimit="10" stroke-linecap="round" stroke-linejoin="round"/>
<path d="M24.4529 9.61803L24.7348 13.9082" stroke="#74A02F" stroke-width="1.5" stroke-miterlimit="10" stroke-linecap="round" stroke-linejoin="round"/>
<path d="M28.6228 9.61803L29.4686 13.9082" stroke="#74A02F" stroke-width="1.5" stroke-miterlimit="10" stroke-linecap="round" stroke-linejoin="round"/>
<path d="M32.2612 19.3106V32.4882" stroke="#74A02F" stroke-width="1.5" stroke-miterlimit="10" stroke-linecap="round" stroke-linejoin="round"/>
<path d="M24.8411 20.1317V30.9297" stroke="#74A02F" stroke-width="1.5" stroke-miterlimit="10" stroke-linecap="round" stroke-linejoin="round"/>
<path d="M12.4739 19.3105V32.5009" stroke="#74A02F" stroke-width="1.5" stroke-miterlimit="10" stroke-linecap="round" stroke-linejoin="round"/>
<path d="M21.5285 22.532L15.9685 28.0917" stroke="#74A02F" stroke-width="1.5" stroke-miterlimit="10" stroke-linecap="round" stroke-linejoin="round"/>
<path d="M18.5209 22.532L15.9685 25.0845" stroke="#74A02F" stroke-width="1.5" stroke-miterlimit="10" stroke-linecap="round" stroke-linejoin="round"/>
<path d="M27.8017 25.3119H27.0225" stroke="#74A02F" stroke-width="1.5" stroke-miterlimit="10" stroke-linecap="round" stroke-linejoin="round"/>
<path d="M34.7347 16.5825C34.7347 17.9487 33.6275 19.0559 32.2613 19.0559C31.3658 19.0559 30.5813 18.5799 30.1474 17.8672C29.9866 17.6033 29.5891 17.6033 29.4283 17.8672C28.9944 18.5799 28.2099 19.0559 27.3144 19.0559C26.4186 19.0559 25.6344 18.5799 25.2001 17.8672C25.0397 17.6033 24.6423 17.6033 24.4815 17.8672C24.0472 18.5799 23.263 19.0559 22.3675 19.0559C21.4717 19.0559 20.6875 18.5799 20.2533 17.8672C20.0928 17.6033 19.695 17.6033 19.5346 17.8672C19.1003 18.5799 18.3161 19.0559 17.4203 19.0559C16.5249 19.0559 15.7407 18.5799 15.3064 17.8672C15.1456 17.6033 14.7482 17.6033 14.5877 17.8672C14.1534 18.5799 13.3692 19.0559 12.4734 19.0559C11.1076 19.0559 10 17.9487 10 16.5825" stroke="#74A02F" stroke-width="1.5" stroke-miterlimit="10" stroke-linecap="round" stroke-linejoin="round"/>
<path d="M10.0002 16.5825V15.5263L12.4737 8.00005H32.2612L34.7346 15.5263V16.5825" stroke="#74A02F" stroke-width="1.5" stroke-miterlimit="10" stroke-linecap="round" stroke-linejoin="round"/>
</svg>
