<svg width="14" height="14" viewBox="0 0 14 14" fill="none" xmlns="http://www.w3.org/2000/svg">
<circle cx="7" cy="7" r="7" fill="#74A02F"/>
<path fill-rule="evenodd" clip-rule="evenodd" d="M9.68702 6.07749C9.93329 5.83047 9.93268 5.43058 9.68566 5.18431C9.43864 4.93803 9.03875 4.93864 8.79248 5.18566L6.09146 7.89491L4.96459 6.76461C4.71832 6.51759 4.31843 6.51698 4.07141 6.76325C3.82439 7.00952 3.82378 7.40941 4.07005 7.65643L5.64396 9.23514L5.64419 9.23537C5.64464 9.23583 5.6451 9.23628 5.64555 9.23673C5.89212 9.48255 6.29099 9.4824 6.53737 9.23673C6.53783 9.23628 6.53828 9.23583 6.53873 9.23537M9.68702 6.07749L6.53927 9.23484L9.68702 6.07749Z" fill="#D2F3D7"/>
</svg>
