<svg width="25" height="29" viewBox="0 0 25 29" fill="none" xmlns="http://www.w3.org/2000/svg">
<path d="M13.0427 12.5437C12.9088 12.5268 12.7734 12.5268 12.6395 12.5437C11.2146 12.4954 9.86429 11.8934 8.87353 10.8647C7.88293 9.83587 7.32948 8.4609 7.33029 7.03024C7.33029 3.9785 9.78331 1.50001 12.8411 1.50001C14.285 1.4975 15.6721 2.06451 16.7034 3.07882C17.7346 4.09313 18.3274 5.4735 18.3537 6.9223C18.3801 8.3712 17.8383 9.77231 16.8447 10.8239C15.8512 11.8755 14.4858 12.4931 13.0427 12.5437ZM24.1651 23.6716C21.0774 26.5193 17.0347 28.0964 12.8411 28.089C8.47282 28.089 4.5077 26.4198 1.51709 23.6716C1.6851 22.0867 2.69317 20.5355 4.49089 19.3216C9.09446 16.253 16.6214 16.253 21.1913 19.3216C22.989 20.5355 23.9971 22.0867 24.1651 23.6716Z" stroke="#9FA39F" stroke-width="1.5" stroke-linecap="round" stroke-linejoin="round"/>
</svg>
