<svg width="24" height="31" viewBox="0 0 24 31" fill="none" xmlns="http://www.w3.org/2000/svg">
<g clip-path="url(#clip0_4999_7338)">
<path fill-rule="evenodd" clip-rule="evenodd" d="M5.35889 4.84912H13.8525C14.4556 4.84912 14.4238 5.09326 14.3701 5.71582L14.0283 10.0908C13.9697 10.7866 14.0186 10.6182 13.2812 10.7256L7.22656 11.2554L7.58545 12.2979C10.5298 12.2979 11.2183 12.2979 14.1602 12.2979C14.2603 12.6689 14.3945 13.2695 14.4922 13.6821H13.2788L13.1616 13.2598C10.7104 13.2598 10.5078 13.2598 8.0542 13.2598C6.71387 13.2378 6.84814 13.5991 6.52832 12.4419L4.22607 4.58057H3.51562V3.60156H5.05859C5.14893 3.94092 5.27588 4.50732 5.35889 4.84912ZM16.6431 0.530273C16.5356 0.432617 16.3843 0.369141 16.2354 0.369141C16.2036 0.369141 16.1719 0.369141 16.1377 0.378906H1.35254C0.98877 0.378906 0.644531 0.530273 0.397949 0.776855C0.151367 1.02344 0 1.35547 0 1.73145V29.0166C0 29.3926 0.151367 29.7246 0.397949 29.9712C0.644531 30.2178 0.976562 30.3691 1.35254 30.3691H22.5342C22.9102 30.3691 23.2422 30.2178 23.4888 29.9712C23.7354 29.7246 23.8867 29.3926 23.8867 29.0166V8.25488C23.8965 8.20117 23.9087 8.15723 23.9087 8.10352C23.9087 7.92041 23.8232 7.75928 23.7036 7.64209L16.7163 0.571777C16.6943 0.549805 16.6846 0.540039 16.6626 0.527832L16.6431 0.530273ZM16.1621 1.59229V6.34326C16.1621 6.84863 16.3672 7.31006 16.6992 7.64209C17.0312 7.97412 17.4927 8.1792 17.998 8.1792H22.6514V29.019C22.6514 29.0508 22.6416 29.0947 22.6074 29.1167C22.5854 29.1387 22.5537 29.1606 22.5098 29.1606H1.34033C1.30859 29.1606 1.26465 29.1509 1.24268 29.1167C1.2207 29.0947 1.19873 29.0532 1.19873 29.019V1.73145C1.19873 1.6875 1.2085 1.65576 1.24268 1.63379C1.26465 1.61182 1.29639 1.58984 1.34033 1.58984H16.1621V1.59229ZM17.373 6.34326V2.55908L21.7163 6.96582H17.9956C17.8247 6.96582 17.6733 6.89014 17.5562 6.78271C17.4487 6.67529 17.373 6.51416 17.373 6.34326ZM5.00977 17.3833C4.67773 17.3833 4.39941 17.6519 4.39941 17.9937C4.39941 18.3257 4.66797 18.6064 5.00977 18.6064H18.7134C19.0454 18.6064 19.3262 18.3379 19.3262 17.9937C19.3262 17.6616 19.0576 17.3833 18.7134 17.3833H5.00977ZM5.23926 24.6318C4.90723 24.6318 4.62646 24.9004 4.62646 25.2446C4.62646 25.5767 4.89502 25.855 5.23926 25.855H18.8525C19.1846 25.855 19.4653 25.5864 19.4653 25.2422C19.4653 24.9102 19.1968 24.6318 18.8525 24.6318H5.23926ZM5.00977 21.1357C4.67773 21.1357 4.39941 21.4043 4.39941 21.7461C4.39941 22.0781 4.66797 22.3564 5.00977 22.3564H18.8525C19.1846 22.3564 19.4629 22.0879 19.4629 21.7461C19.4629 21.4141 19.1943 21.1357 18.8525 21.1357H5.00977ZM9.0332 5.95264H10.7886V7.73486H12.3682L9.91211 10.1226L7.45361 7.73242H9.0332V5.95264ZM8.06396 13.8481C8.58154 13.8481 9.00146 14.2681 9.00146 14.7856C9.00146 15.3032 8.58154 15.7231 8.06396 15.7231C7.54639 15.7231 7.12646 15.3032 7.12646 14.7856C7.12646 14.2681 7.54639 13.8481 8.06396 13.8481ZM11.9287 13.8481C12.4463 13.8481 12.8662 14.2681 12.8662 14.7856C12.8662 15.3032 12.4463 15.7231 11.9287 15.7231C11.4111 15.7231 10.9912 15.3032 10.9912 14.7856C10.9912 14.2681 11.4111 13.8481 11.9287 13.8481Z" fill="white"/>
</g>
<defs>
<clipPath id="clip0_4999_7338">
<rect width="23.9062" height="30" fill="white" transform="translate(0 0.369141)"/>
</clipPath>
</defs>
</svg>
