<svg width="30" height="30" viewBox="0 0 30 30" fill="none" xmlns="http://www.w3.org/2000/svg">
<path d="M23.1248 24.375H18.1248M20.6248 26.875V21.875M14.9873 27.2625C12.7123 27.2625 10.4498 26.6875 8.7248 25.5375C5.6998 23.5125 5.6998 20.2125 8.7248 18.2C12.1623 15.9 17.7998 15.9 21.2373 18.2M15.1998 13.5875C15.0748 13.575 14.9248 13.575 14.7873 13.5875C13.3526 13.5388 11.9931 12.9335 10.9968 11.8999C10.0006 10.8664 9.44573 9.48557 9.4498 8.05C9.44783 7.32166 9.58962 6.6001 9.86706 5.92666C10.1445 5.25323 10.5521 4.64117 11.0665 4.12558C11.581 3.60998 12.1921 3.20099 12.8649 2.92204C13.5377 2.64309 14.259 2.49967 14.9873 2.5C18.0498 2.5 20.5373 4.9875 20.5373 8.05C20.5373 11.05 18.1623 13.4875 15.1998 13.5875Z" stroke="white" stroke-width="1.5" stroke-linecap="round" stroke-linejoin="round"/>
</svg>
