<svg width="30" height="34" viewBox="0 0 30 34" fill="none" xmlns="http://www.w3.org/2000/svg">
<g clip-path="url(#clip0_4999_7353)">
<path d="M14.0942 1.43616C14.0942 1.07607 14.4999 0.78418 14.9999 0.78418C15.4998 0.78418 15.9055 1.07607 15.9055 1.43616V13.2119C15.9055 13.572 15.5001 13.8639 14.9999 13.8639C14.4997 13.8639 14.0942 13.572 14.0942 13.2119V1.43616ZM19.5343 6.00137C19.0651 5.82942 18.8245 5.31012 18.9967 4.84097C19.1684 4.37208 19.6877 4.1314 20.1568 4.30335C23.0657 5.36876 25.5539 7.31224 27.3013 9.81377C29.002 12.2482 30 15.2058 30 18.3915C30 22.5326 28.3206 26.2827 25.6059 28.9975C22.8913 31.7119 19.1413 33.3916 14.9999 33.3916C10.8584 33.3916 7.1084 31.7121 4.39379 28.9975C1.67945 26.2827 0 22.5326 0 18.3915C0 15.2058 0.997744 12.2482 2.69842 9.81377C4.4458 7.31224 6.93406 5.36876 9.84291 4.30335C10.3118 4.13167 10.8314 4.37234 11.0031 4.84097C11.175 5.30985 10.9343 5.82942 10.4654 6.00137C7.90235 6.94021 5.71209 8.64911 4.17699 10.8465C2.68595 12.9811 1.81107 15.5821 1.81107 18.3915C1.81107 22.033 3.28751 25.33 5.67441 27.7169C8.0613 30.1038 11.3584 31.5805 14.9999 31.5805C18.6414 31.5805 21.9384 30.1041 24.3253 27.7169C26.7122 25.3303 28.1887 22.033 28.1887 18.3915C28.1887 15.5821 27.3138 12.9811 25.8227 10.8465C24.2874 8.64885 22.0974 6.93994 19.5343 6.00137Z" fill="white"/>
</g>
<defs>
<clipPath id="clip0_4999_7353">
<rect width="30" height="32.6071" fill="white" transform="translate(0 0.78418)"/>
</clipPath>
</defs>
</svg>
