<svg width="32" height="37" viewBox="0 0 32 37" fill="none" xmlns="http://www.w3.org/2000/svg">
<path d="M1 10.8933L1.56566 18.6064C1.6458 19.5241 3.28209 20.3238 4.27952 20.4711C4.32446 20.4776 4.36801 20.4831 4.41017 20.4868L5.1704 30.7618C5.19958 31.1667 5.54426 31.4961 5.93805 31.4961H9.24397C9.63729 31.4961 9.98197 31.1667 10.0116 30.7618L10.7719 20.4868C10.814 20.4827 10.8576 20.4776 10.903 20.4711C11.8995 20.3242 13.5353 19.5241 13.6164 18.6106L14.1806 11.0277C14.1839 10.9647 14.1825 10.9216 14.1816 10.8966C14.1816 9.38492 12.9919 8.12898 11.5284 8.09284H3.66105C2.19061 8.12898 1 9.3849 1 10.8933Z" stroke="white" stroke-width="1.5" stroke-miterlimit="10" stroke-linecap="round" stroke-linejoin="round"/>
<path d="M7.59068 6.01758C8.97356 6.01758 10.0989 4.89228 10.0989 3.5094C10.0989 2.12606 8.97356 1.00077 7.59068 1.00077C6.20735 1.00077 5.08252 2.12606 5.08252 3.5094C5.08252 4.89228 6.20735 6.01758 7.59068 6.01758Z" stroke="white" stroke-width="1.5" stroke-miterlimit="10" stroke-linecap="round" stroke-linejoin="round"/>
<path d="M17.8174 10.8933L18.383 18.6064C18.4632 19.5241 20.0995 20.3238 21.0969 20.4711C21.1418 20.4776 21.1854 20.4831 21.2275 20.4868L21.9878 30.7618C22.017 31.1667 22.3616 31.4961 22.7554 31.4961H26.0614C26.4547 31.4961 26.7994 31.1667 26.829 30.7618L27.5892 20.4868C27.6314 20.4827 27.6745 20.4776 27.7203 20.4711C28.7164 20.3242 30.3527 19.5241 30.4333 18.6106L30.998 11.0277C31.0013 10.9647 30.9999 10.9216 30.9989 10.8966C30.9989 9.38492 29.8088 8.12898 28.3458 8.09284H20.4784C19.008 8.12898 17.8174 9.3849 17.8174 10.8933Z" stroke="white" stroke-width="1.5" stroke-miterlimit="10" stroke-linecap="round" stroke-linejoin="round"/>
<path d="M24.4086 6.01758C25.7914 6.01758 26.9167 4.89228 26.9167 3.5094C26.9167 2.12606 25.7914 1.00077 24.4086 1.00077C23.0252 1.00077 21.9004 2.12606 21.9004 3.5094C21.9004 4.89228 23.0252 6.01758 24.4086 6.01758Z" stroke="white" stroke-width="1.5" stroke-miterlimit="10" stroke-linecap="round" stroke-linejoin="round"/>
<path d="M14.3483 36.3691C13.5858 36.3691 12.9441 35.7641 12.8876 34.9909L12.1672 25.2496C11.0327 24.9568 9.39406 24.1104 9.28426 22.8447L8.71721 15.1224C8.71628 15.1057 8.71582 15.0886 8.71582 15.0715C8.71582 13.1896 10.2131 11.6215 12.0542 11.5761H19.9391C21.7927 11.6219 23.2872 13.191 23.2872 15.0752C23.2881 15.0854 23.29 15.1484 23.2853 15.241L22.7197 22.8406C22.6067 24.1123 20.9681 24.9582 19.8358 25.2501L19.1154 34.9918C19.058 35.7641 18.4163 36.3691 17.6542 36.3691H14.3483Z" fill="white"/>
<path d="M16.0015 3.78708C13.8524 3.78708 12.1035 5.53594 12.1035 7.68553C12.1035 9.83513 13.8524 11.584 16.0015 11.584C18.1511 11.584 19.9 9.83513 19.9 7.68553C19.9 5.53594 18.1511 3.78708 16.0015 3.78708ZM16.0015 5.1769C17.3844 5.1769 18.5101 6.30266 18.5101 7.68553C18.5101 9.06887 17.3844 10.1942 16.0015 10.1942C14.6186 10.1942 13.4933 9.06887 13.4933 7.68553C13.4933 6.30266 14.6186 5.1769 16.0015 5.1769Z" fill="white"/>
<path d="M9.41016 15.0725L9.97628 22.7856C10.056 23.7034 11.6923 24.503 12.6901 24.6508C12.7351 24.6572 12.7782 24.6628 12.8203 24.6665L13.5806 34.9415C13.6102 35.3464 13.9544 35.6758 14.3482 35.6758H17.6541C18.0475 35.6758 18.3921 35.3464 18.4222 34.9415L19.182 24.666C19.2242 24.6623 19.2677 24.6572 19.3131 24.6508C20.3096 24.5034 21.9455 23.7038 22.0265 22.7903L22.5913 15.2074C22.5945 15.1439 22.5931 15.1008 22.5922 15.0758C22.5922 13.5646 21.402 12.3082 19.939 12.2721H12.0712C10.6008 12.3082 9.41016 13.5646 9.41016 15.0725Z" stroke="white" stroke-width="1.5" stroke-miterlimit="10" stroke-linecap="round" stroke-linejoin="round"/>
<path d="M16.0013 10.1973C17.3842 10.1973 18.51 9.07198 18.51 7.68864C18.51 6.30576 17.3842 5.18001 16.0013 5.18001C14.6185 5.18001 13.4932 6.30576 13.4932 7.68864C13.4932 9.07198 14.6185 10.1973 16.0013 10.1973Z" stroke="white" stroke-width="1.5" stroke-miterlimit="10" stroke-linecap="round" stroke-linejoin="round"/>
</svg>
