<svg width="63" height="62" viewBox="0 0 63 62" fill="none" xmlns="http://www.w3.org/2000/svg">
<g filter="url(#filter0_d_4408_20975)">
<path d="M57.4761 24.8399L46.386 34.1049L49.9061 48.3976C50.112 49.1962 50.0743 50.0387 49.7956 50.8151C49.5169 51.5912 49.0122 52.2651 48.3469 52.7484C47.7041 53.2199 46.9334 53.4853 46.1374 53.51C45.339 53.5346 44.5556 53.3174 43.8827 52.887L31.5172 45.0234C31.482 45.0042 31.467 45.012 31.4519 45.0234L19.9576 52.3314C19.217 52.8044 18.3508 53.0425 17.4745 53.015C16.5982 52.9876 15.7496 52.6957 15.039 52.1774C14.3034 51.6439 13.746 50.9 13.4397 50.0429C13.1308 49.1861 13.0907 48.256 13.3191 47.3748L16.6334 34.2914L5.49057 24.8399C4.86037 24.3122 4.40342 23.6059 4.17745 22.8131C3.95148 22.02 3.96907 21.1776 4.22768 20.3949C4.47122 19.6233 4.94323 18.9434 5.57846 18.4444C6.21368 17.9454 6.98448 17.6504 7.79044 17.5974L22.2726 16.6534L27.7536 2.92221C28.0448 2.16848 28.557 1.5206 29.2224 1.06347C29.8852 0.606092 30.6736 0.360887 31.477 0.359375H31.4821C32.288 0.359627 33.0764 0.604323 33.7417 1.0617C34.4096 1.51883 34.9218 2.16747 35.2131 2.92221L40.6162 16.5746L55.1762 17.5974C55.9821 17.6504 56.7529 17.9454 57.3882 18.4444C58.0234 18.9434 58.4954 19.6233 58.7415 20.3949C58.9976 21.1776 59.0152 22.02 58.7917 22.8131C58.5657 23.6059 58.1063 24.3122 57.4761 24.8399Z" fill="#D9D9D9"/>
</g>
<defs>
<filter id="filter0_d_4408_20975" x="0.0199585" y="0.359375" width="62.9274" height="61.1562" filterUnits="userSpaceOnUse" color-interpolation-filters="sRGB">
<feFlood flood-opacity="0" result="BackgroundImageFix"/>
<feColorMatrix in="SourceAlpha" type="matrix" values="0 0 0 0 0 0 0 0 0 0 0 0 0 0 0 0 0 0 127 0" result="hardAlpha"/>
<feOffset dy="4"/>
<feGaussianBlur stdDeviation="2"/>
<feComposite in2="hardAlpha" operator="out"/>
<feColorMatrix type="matrix" values="0 0 0 0 0 0 0 0 0 0 0 0 0 0 0 0 0 0 0.1 0"/>
<feBlend mode="normal" in2="BackgroundImageFix" result="effect1_dropShadow_4408_20975"/>
<feBlend mode="normal" in="SourceGraphic" in2="effect1_dropShadow_4408_20975" result="shape"/>
</filter>
</defs>
</svg>
