<svg width="32" height="34" viewBox="0 0 32 34" fill="none" xmlns="http://www.w3.org/2000/svg">
<path d="M30.9999 32.6387V8.45979C30.9999 7.15243 29.9406 6.09305 28.6332 6.09305H8.10107" stroke="white" stroke-width="1.5" stroke-miterlimit="10" stroke-linecap="round" stroke-linejoin="round"/>
<path d="M1 1.36976H21.5326V4.58984" stroke="white" stroke-width="1.5" stroke-miterlimit="10" stroke-linejoin="round"/>
<path d="M1 1.36868V20.9882C1 22.2951 2.05985 23.355 3.36721 23.355C4.67411 23.355 5.73394 22.2951 5.73394 20.9882V8.45979C5.73394 7.15243 6.79378 6.09305 8.10114 6.09305C9.40804 6.09305 10.4679 7.15243 10.4679 8.45979V32.6387" stroke="white" stroke-width="1.5" stroke-miterlimit="10" stroke-linecap="round" stroke-linejoin="round"/>
<path d="M15.064 15.373H26.4035" stroke="white" stroke-width="1.5" stroke-miterlimit="10" stroke-linecap="round" stroke-linejoin="round"/>
<path d="M15.064 11.416H26.4035" stroke="white" stroke-width="1.5" stroke-miterlimit="10" stroke-linecap="round" stroke-linejoin="round"/>
<path d="M3.36719 23.3535H8.96359" stroke="white" stroke-width="1.5" stroke-miterlimit="10" stroke-linejoin="round"/>
<path d="M25.121 20.2448C23.9326 18.9616 21.9324 19.0104 20.8032 20.2868C19.6746 19.0104 17.6739 18.9616 16.4859 20.2448C15.453 21.3603 15.5514 23.123 16.5584 24.2617L18.751 26.7411L20.2585 28.4459C20.5479 28.7732 21.059 28.7732 21.3484 28.4459L22.8559 26.7411L25.0485 24.2617C26.0555 23.123 26.1539 21.3603 25.121 20.2448Z" stroke="white" stroke-width="1.5" stroke-miterlimit="10" stroke-linecap="round" stroke-linejoin="round"/>
<path d="M8.5 32.7852H25" stroke="white" stroke-width="1.5"/>
</svg>
