<svg width="32" height="32" viewBox="0 0 32 32" fill="none" xmlns="http://www.w3.org/2000/svg">
<path d="M31 31H1L6.09997 20.7034H25.9L31 31Z" stroke="white" stroke-width="1.5" stroke-miterlimit="10" stroke-linecap="round" stroke-linejoin="round"/>
<path d="M24.517 9.51824C24.517 3.77806 18.8408 -0.636301 12.7957 1.58508C10.7144 2.34989 9.01686 3.98883 8.18319 6.04405C7.03345 8.87894 7.38319 11.6189 8.62998 13.7747L8.62473 13.7778L14.8998 24.6499C15.389 25.4969 16.6113 25.4969 17.1005 24.6499L23.376 13.7778L23.3703 13.7743C24.0951 12.521 24.517 11.0706 24.517 9.51824Z" stroke="white" stroke-width="1.5" stroke-miterlimit="10" stroke-linecap="round" stroke-linejoin="round"/>
<path d="M20.1552 9.52529C20.1552 11.821 18.2946 13.6816 16 13.6816C13.7053 13.6816 11.8447 11.821 11.8447 9.52529C11.8447 7.23 13.7053 5.36893 16 5.36893" stroke="white" stroke-width="1.5" stroke-miterlimit="10" stroke-linecap="round" stroke-linejoin="round"/>
</svg>
