<svg width="36" height="38" viewBox="0 0 36 38" fill="none" xmlns="http://www.w3.org/2000/svg">
<path d="M31.5 19C31.5 18.0552 31.1444 17.149 30.5115 16.4809C29.8785 15.8128 29.0201 15.4375 28.125 15.4375H22.5C22.5 16.6973 22.0259 17.9055 21.182 18.7963C20.3381 19.6871 19.1935 20.1875 18 20.1875C16.8065 20.1875 15.6619 19.6871 14.818 18.7963C13.9741 17.9055 13.5 16.6973 13.5 15.4375H7.875C6.97989 15.4375 6.12145 15.8128 5.48851 16.4809C4.85558 17.149 4.5 18.0552 4.5 19M31.5 19V28.5C31.5 29.4448 31.1444 30.351 30.5115 31.0191C29.8785 31.6872 29.0201 32.0625 28.125 32.0625H7.875C6.97989 32.0625 6.12145 31.6872 5.48851 31.0191C4.85558 30.351 4.5 29.4448 4.5 28.5V19M31.5 19V14.25M4.5 19V14.25M31.5 14.25C31.5 13.3052 31.1444 12.399 30.5115 11.7309C29.8785 11.0628 29.0201 10.6875 28.125 10.6875H7.875C6.97989 10.6875 6.12145 11.0628 5.48851 11.7309C4.85558 12.399 4.5 13.3052 4.5 14.25M31.5 14.25V9.5C31.5 8.55517 31.1444 7.64903 30.5115 6.98093C29.8785 6.31283 29.0201 5.9375 28.125 5.9375H7.875C6.97989 5.9375 6.12145 6.31283 5.48851 6.98093C4.85558 7.64903 4.5 8.55517 4.5 9.5V14.25" stroke="white" stroke-width="1.5" stroke-linecap="round" stroke-linejoin="round"/>
</svg>
