<svg width="25" height="24" viewBox="0 0 25 24" fill="none" xmlns="http://www.w3.org/2000/svg">
<path d="M13.3179 4.28656C13.1795 4.44426 13.0412 4.60416 12.8703 4.79473L12.4003 5.32261L11.912 4.81225C11.7676 4.66111 11.6211 4.50559 11.4787 4.35446C9.96908 2.75548 8.83179 1.55077 6.49007 1.51792C6.39852 1.51573 6.30086 1.51792 6.19914 1.5223C4.88892 1.57268 3.68042 2.0918 2.79744 2.9789C1.92668 3.85505 1.37126 5.097 1.35295 6.60836C1.35091 6.70255 1.35295 6.80111 1.35702 6.90844C1.4974 11.1293 5.24902 14.8113 8.35978 17.8625C8.95996 18.4517 9.53573 19.0169 10.0871 19.5886L12.3779 21.9651L15.2568 18.8898C15.7206 18.3948 16.2455 17.8538 16.807 17.2755C17.7612 16.2898 18.8232 15.1968 19.812 14.0951C20.5221 13.3044 21.1955 12.5092 21.7672 11.7448C22.3287 10.9957 22.7885 10.2838 23.0835 9.64861C23.5677 8.60599 23.7203 7.56337 23.6165 6.58865C23.5148 5.62707 23.1628 4.72901 22.6359 3.96238C22.1008 3.1848 21.3888 2.54082 20.5729 2.10056C19.633 1.59677 18.5567 1.35802 17.4561 1.49382C15.5579 1.73038 14.5467 2.88471 13.3179 4.28656ZM12.3637 3.2527C13.7675 1.65153 14.9333 0.339491 17.3014 0.0481702C18.6686 -0.120489 20.0073 0.173022 21.1731 0.803851C22.1802 1.34707 23.0591 2.13998 23.7183 3.09718C24.3835 4.06533 24.8291 5.20214 24.9593 6.42437C25.0916 7.66412 24.9003 8.98492 24.2879 10.2992C23.9421 11.0417 23.4294 11.839 22.817 12.656C22.2168 13.4577 21.5169 14.2856 20.7825 15.1027C19.7754 16.2263 18.7052 17.3303 17.7409 18.3247C17.1773 18.9052 16.6504 19.4484 16.2069 19.9215L12.8581 23.4984L12.3881 24L11.912 23.5071L9.1451 20.6377C8.63851 20.1142 8.05257 19.5382 7.44425 18.9402C4.14632 15.7006 0.164795 11.7952 0.00406901 6.95882C0 6.84054 0 6.71788 0 6.59084C0.0244141 4.65016 0.744629 3.0468 1.87378 1.91218C2.99276 0.788519 4.51253 0.131405 6.14827 0.0678836C6.26017 0.0635028 6.37817 0.0613124 6.50228 0.0635028C9.35872 0.10512 10.6649 1.4522 12.3637 3.2527Z" fill="black"/>
</svg>
